<svg xmlns="http://www.w3.org/2000/svg" width="12.768" height="11.619" viewBox="0 0 12.768 11.619">
  <g id="Iconly_Light-Outline_Filter" data-name="Iconly/Light-Outline/Filter" transform="translate(-2.9 -3.9)">
    <g id="Filter" transform="translate(3 4)">
      <path fill="#11203d" id="Combined-Shape" d="M10.333,6.972A2.224,2.224,0,1,1,8.1,9.2,2.232,2.232,0,0,1,10.333,6.972Zm0,1.077A1.146,1.146,0,1,0,11.491,9.2,1.154,1.154,0,0,0,10.333,8.05Zm-5.248.635a.539.539,0,1,1,0,1.077H.56a.539.539,0,0,1,0-1.077ZM2.236,0A2.224,2.224,0,1,1,0,2.224,2.233,2.233,0,0,1,2.236,0Zm0,1.077A1.146,1.146,0,1,0,3.394,2.224,1.154,1.154,0,0,0,2.236,1.077Zm9.393.647a.539.539,0,0,1,0,1.077H7.1a.539.539,0,0,1,0-1.077Z" transform="translate(0 0)" stroke="#11203d" stroke-width="0.2" fill-rule="evenodd"/>
    </g>
  </g>
</svg>
