<svg xmlns="http://www.w3.org/2000/svg" width="10.021" height="10.021" viewBox="0 0 10.021 10.021">
  <path id="Icon_awesome-check-circle" data-name="Icon awesome-check-circle" d="M10.583,5.573A5.01,5.01,0,1,1,5.573.563,5.01,5.01,0,0,1,10.583,5.573ZM4.993,8.226,8.711,4.509a.323.323,0,0,0,0-.457l-.457-.457a.323.323,0,0,0-.457,0L4.765,6.626,3.349,5.211a.323.323,0,0,0-.457,0l-.457.457a.323.323,0,0,0,0,.457l2.1,2.1a.323.323,0,0,0,.457,0Z" transform="translate(-0.563 -0.563)" fill="#1f9cef"/>
</svg>
