<svg xmlns="http://www.w3.org/2000/svg" width="31.493" height="27" viewBox="0 0 31.493 27">
  <g id="Icon_ionic-ios-folder-open" data-name="Icon ionic-ios-folder-open" transform="translate(-2.252 -4.5)">
    <path id="Path_21264" data-name="Path 21264" d="M31.5,8.367A1.551,1.551,0,0,0,29.9,6.75H16.235a.52.52,0,0,1-.429-.169L14.224,5l-.014-.014A1.528,1.528,0,0,0,12.994,4.5H6.237A1.673,1.673,0,0,0,4.5,6.117V11.25h27Z" fill="#1f9cef"/>
    <path id="Path_21265" data-name="Path 21265" d="M4.5,13.219H3.916c-.9,0-1.779.359-1.652,1.709S3.916,29.742,3.916,29.742c.19,1.252.823,1.758,1.758,1.758H30.459c.893,0,1.477-.548,1.617-1.758,0,0,1.561-13,1.659-14.449s-.626-2.074-1.659-2.074H4.5Z" fill="#1f9cef"/>
  </g>
</svg>
