<svg id="Icon_ionic-ios-arrow-dropdown" data-name="Icon ionic-ios-arrow-dropdown" xmlns="http://www.w3.org/2000/svg" width="17.78" height="17.78" viewBox="0 0 17.78 17.78">
  <path id="Path_20851" data-name="Path 20851" d="M.24.244a.828.828,0,0,0,0,1.167l4.09,4.077a.824.824,0,0,0,1.137.026L9.5,1.5A.824.824,0,1,0,8.335.33L4.873,3.74,1.407.24A.824.824,0,0,0,.24.244Z" transform="translate(4.016 6.71)" fill="#1f9cef"/>
  <path id="Path_20852" data-name="Path 20852" d="M0,8.89A8.89,8.89,0,1,0,8.89,0,8.889,8.889,0,0,0,0,8.89ZM14.207,3.573A7.519,7.519,0,1,1,3.573,14.207,7.519,7.519,0,1,1,14.207,3.573Z" transform="translate(0)" fill="#1f9cef"/>
</svg>
