<svg xmlns="http://www.w3.org/2000/svg" width="14.655" height="14.655" viewBox="0 0 14.655 14.655">
  <g id="Iconly_Light-Outline_Category" data-name="Iconly/Light-Outline/Category" transform="translate(-1.9 -1.9)">
    <g id="Category" transform="translate(2 2)">
      <path id="Combined-Shape" d="M3.15,8.154c3.016,0,3.15,1.023,3.15,3.15a3.7,3.7,0,0,1-.448,2.379c-.515.64-1.453.771-2.7.771s-2.187-.131-2.7-.771A3.666,3.666,0,0,1,0,11.323L.556,11.3H0C0,9.177.134,8.154,3.15,8.154Zm8.154,0c3.016,0,3.15,1.023,3.15,3.15a3.7,3.7,0,0,1-.448,2.379c-.515.64-1.453.771-2.7.771s-2.187-.131-2.7-.771a3.666,3.666,0,0,1-.448-2.361L8.71,11.3H8.154C8.154,9.177,8.288,8.154,11.3,8.154Zm-8,1.112H3.15c-1.934,0-2.033.139-2.038,1.762v.632a2.514,2.514,0,0,0,.2,1.327c.2.243.78.356,1.838.356s1.641-.113,1.838-.357a3.345,3.345,0,0,0,.2-1.664C5.189,9.469,5.189,9.275,3.3,9.266Zm8.154,0H11.3c-1.934,0-2.033.139-2.038,1.762v.632a2.514,2.514,0,0,0,.2,1.327c.2.243.78.356,1.838.356s1.641-.113,1.838-.357a3.345,3.345,0,0,0,.2-1.664C13.343,9.469,13.343,9.275,11.457,9.266ZM3.15,0C6.167,0,6.3,1.023,6.3,3.15A3.7,3.7,0,0,1,5.853,5.53c-.515.64-1.453.771-2.7.771S.963,6.17.448,5.53A3.666,3.666,0,0,1,0,3.169L.556,3.15H0C0,1.023.134,0,3.15,0ZM11.3,0c3.016,0,3.15,1.023,3.15,3.15a3.7,3.7,0,0,1-.448,2.379c-.515.64-1.453.771-2.7.771S9.117,6.17,8.6,5.53a3.666,3.666,0,0,1-.448-2.361L8.71,3.15H8.154C8.154,1.023,8.288,0,11.3,0Zm-8,1.112H3.15c-1.934,0-2.033.139-2.038,1.762v.632a2.514,2.514,0,0,0,.2,1.327c.2.243.78.356,1.838.356s1.641-.113,1.838-.357a3.345,3.345,0,0,0,.2-1.664C5.189,1.315,5.189,1.121,3.3,1.112Zm8.154,0H11.3c-1.934,0-2.033.139-2.038,1.762v.632a2.514,2.514,0,0,0,.2,1.327c.2.243.78.356,1.838.356s1.641-.113,1.838-.357a3.345,3.345,0,0,0,.2-1.664C13.343,1.315,13.343,1.121,11.457,1.112Z" fill="#11203d" stroke="#11203d" stroke-width="0.2" fill-rule="evenodd"/>
    </g>
  </g>
</svg>
