<svg xmlns="http://www.w3.org/2000/svg" width="18.828" height="18.828" viewBox="0 0 18.828 18.828">
  <g id="eye-off" transform="translate(0.823 0.823)">
    <path id="Path_21054" data-name="Path 21054" d="M12.691,13.62a6.949,6.949,0,0,1-4.1,1.422C3.76,15.042,1,9.521,1,9.521a12.733,12.733,0,0,1,3.492-4.1m2.65-1.256A6.294,6.294,0,0,1,8.591,4c4.831,0,7.591,5.521,7.591,5.521a12.767,12.767,0,0,1-1.491,2.2m-4.638-.738A2.07,2.07,0,1,1,7.128,8.058" transform="translate(0 -0.93)" fill="none" stroke="#7b868a" stroke-linecap="round" stroke-linejoin="round" stroke-width="2"/>
    <line id="Line_139" data-name="Line 139" x2="16" y2="16" transform="translate(0.591 0.591)" fill="none" stroke="#7b868a" stroke-linecap="round" stroke-linejoin="round" stroke-width="2"/>
  </g>
</svg>
