<svg xmlns="http://www.w3.org/2000/svg" width="14.58" height="12.758" viewBox="0 0 14.58 12.758">
  <g id="Group_13005" data-name="Group 13005" transform="translate(858 -224.117) rotate(90)">
    <path id="Icon_metro-equalizer-v" data-name="Icon metro-equalizer-v" d="M16.345,8.307h.228a.685.685,0,0,0,.683-.683V5.345a.685.685,0,0,0-.683-.683h-.228V1.928H14.523V4.662h-.228a.685.685,0,0,0-.683.683V7.623a.685.685,0,0,0,.683.683h.228v8.2h1.823ZM14.523,5.573h1.823V7.4H14.523Zm-2.506,8.2a.685.685,0,0,0,.683-.683V10.813a.685.685,0,0,0-.683-.683h-.228v-8.2H9.966v8.2H9.738a.685.685,0,0,0-.683.683v2.278a.685.685,0,0,0,.683.683h.228v2.734h1.823V13.774Zm-2.05-2.734h1.823v1.823H9.966V11.041ZM7.46,8.307a.685.685,0,0,0,.683-.683V5.345a.685.685,0,0,0-.683-.683H7.233V1.928H5.41V4.662H5.182a.685.685,0,0,0-.683.683V7.623a.685.685,0,0,0,.683.683H5.41v8.2H7.233v-8.2H7.46ZM5.41,5.573H7.233V7.4H5.41V5.573Z" transform="translate(219.619 841.492)" fill="#0f141a"/>
  </g>
</svg>
