<svg xmlns="http://www.w3.org/2000/svg" width="22.695" height="22.695" viewBox="0 0 22.695 22.695">
  <path id="Icon_awesome-user-circle" data-name="Icon awesome-user-circle" d="M10.447.563A10.447,10.447,0,1,0,20.895,11.01,10.445,10.445,0,0,0,10.447.563Zm0,4.044A3.707,3.707,0,1,1,6.74,8.314,3.707,3.707,0,0,1,10.447,4.607Zm0,16.85c-2.473,0-6.281-2.092-7.764-3.845.792-1.491,3.935-3.907,5.742-3.907a1.031,1.031,0,0,1,.3.046,5.577,5.577,0,0,0,1.723.291,5.556,5.556,0,0,0,1.723-.291,1.031,1.031,0,0,1,.3-.046c1.807,0,5.133,2.415,5.924,3.907C16.911,19.365,12.92,21.457,10.447,21.457Z" transform="translate(0.9 0.338)" fill="none" stroke="#546471" stroke-width="1.8"/>
</svg>
