<svg xmlns="http://www.w3.org/2000/svg" width="19" height="19" viewBox="0 0 24.194 22.895">
  <g id="Icon_feather-shopping-cart" data-name="Icon feather-shopping-cart" transform="translate(-0.404 -0.5)">
    <path id="Path_1479" data-name="Path 1479" d="M13.99,30.995A.995.995,0,1,1,12.995,30,.995.995,0,0,1,13.99,30.995Z" transform="translate(-3.535 -9.595)" fill="none" stroke="#546471" stroke-width="2"/>
    <path id="Path_1480" data-name="Path 1480" d="M30.49,30.995A.995.995,0,1,1,29.495,30,.995.995,0,0,1,30.49,30.995Z" transform="translate(-9.09 -9.595)" fill="none" stroke="#546471" stroke-width="2"/>
    <path id="Path_1481" data-name="Path 1481" d="M1.5,1.5,5.962,5.143,2.66,1.5H5.48L8.146,14.823a1.99,1.99,0,0,0,1.99,1.6h9.671a1.99,1.99,0,0,0,1.99-1.6L23.39,6.475H6.475" fill="none" stroke="#546471" stroke-width="2"/>
  </g>
</svg>
