<svg xmlns="http://www.w3.org/2000/svg" width="21.289" height="23.493" viewBox="0 0 21.289 23.493">
  <g id="Icon_feather-box" data-name="Icon feather-box" transform="translate(-3.5 -1.97)">
    <path id="Path_1498" data-name="Path 1498" d="M23.788,18V9.43a2.143,2.143,0,0,0-1.072-1.854l-7.5-4.286a2.143,2.143,0,0,0-2.143,0l-7.5,4.286A2.143,2.143,0,0,0,4.5,9.43V18a2.143,2.143,0,0,0,1.072,1.854l7.5,4.286a2.143,2.143,0,0,0,2.143,0l7.5-4.286A2.143,2.143,0,0,0,23.788,18Z" fill="none" stroke="#546471" stroke-width="2"/>
    <path id="Path_1499" data-name="Path 1499" d="M4.905,10.44l9.355,5.411,9.355-5.411" transform="translate(-0.116 -2.124)" fill="none" stroke="#546471" stroke-width="2"/>
    <path id="Path_1500" data-name="Path 1500" d="M18,28.8V18" transform="translate(-3.856 -4.283)" fill="none" stroke="#546471" stroke-width="2"/>
  </g>
</svg>
