<svg xmlns="http://www.w3.org/2000/svg" width="13.819" height="13.819" viewBox="0 0 13.819 13.819">
  <g id="Group_13131" data-name="Group 13131" transform="translate(-115.591 -274.591)">
    <g id="Path_20819" data-name="Path 20819" transform="translate(115.591 274.591)" fill="#00b208">
      <path d="M 6.909423828125 12.81884384155273 C 3.650953769683838 12.81884384155273 1.000003814697266 10.167893409729 1.000003814697266 6.909423828125 C 1.000003814697266 3.650953769683838 3.650953769683838 1.000003814697266 6.909423828125 1.000003814697266 C 10.167893409729 1.000003814697266 12.81884384155273 3.650953769683838 12.81884384155273 6.909423828125 C 12.81884384155273 10.167893409729 10.167893409729 12.81884384155273 6.909423828125 12.81884384155273 Z" stroke="none"/>
      <path d="M 6.909423828125 2.000003814697266 C 4.202363967895508 2.000003814697266 2.000003814697266 4.202363967895508 2.000003814697266 6.909423828125 C 2.000003814697266 9.616483688354492 4.202363967895508 11.81884384155273 6.909423828125 11.81884384155273 C 9.616483688354492 11.81884384155273 11.81884384155273 9.616483688354492 11.81884384155273 6.909423828125 C 11.81884384155273 4.202363967895508 9.616483688354492 2.000003814697266 6.909423828125 2.000003814697266 M 6.909423828125 3.814697265625e-06 C 10.72539329528809 3.814697265625e-06 13.81884384155273 3.093453407287598 13.81884384155273 6.909423828125 C 13.81884384155273 10.72539329528809 10.72539329528809 13.81884384155273 6.909423828125 13.81884384155273 C 3.093453407287598 13.81884384155273 3.814697265625e-06 10.72539329528809 3.814697265625e-06 6.909423828125 C 3.814697265625e-06 3.093453407287598 3.093453407287598 3.814697265625e-06 6.909423828125 3.814697265625e-06 Z" stroke="none" fill="#fff"/>
    </g>
    <path id="Icon_ionic-ios-checkmark" data-name="Icon ionic-ios-checkmark" d="M16.048,12.712l-.461-.474a.1.1,0,0,0-.073-.031h0a.1.1,0,0,0-.073.031l-3.2,3.221-1.164-1.164a.1.1,0,0,0-.147,0l-.466.466a.1.1,0,0,0,0,.149l1.468,1.468a.464.464,0,0,0,.307.149.486.486,0,0,0,.3-.144h0l3.5-3.522A.112.112,0,0,0,16.048,12.712Z" transform="translate(109.143 267.133)" fill="#fff"/>
  </g>
</svg>
