<svg xmlns="http://www.w3.org/2000/svg" width="18.677" height="15.606" viewBox="0 0 18.677 15.606">
  <g id="Iconly_Light-Outline_Scan" data-name="Iconly/Light-Outline/Scan" transform="translate(-0.9 -2.9)">
    <g id="Scan" transform="translate(1 3)">
      <path id="Combined-Shape" d="M2.767,11.726a2.452,2.452,0,0,0,2.45,2.449H6.232a.616.616,0,0,1,0,1.232H5.217a3.685,3.685,0,0,1-3.681-3.681V9H.616a.616.616,0,1,1,0-1.232H17.861a.616.616,0,0,1,0,1.232h-.92v2.73a3.685,3.685,0,0,1-3.681,3.681h-.99a.616.616,0,0,1,0-1.232h.99a2.452,2.452,0,0,0,2.45-2.449V9H2.767ZM13.26,0a3.685,3.685,0,0,1,3.681,3.68V4.923a.616.616,0,0,1-1.232,0V3.68a2.452,2.452,0,0,0-2.45-2.448h-.99A.616.616,0,1,1,12.27,0ZM6.232,0a.616.616,0,1,1,0,1.232H5.217A2.452,2.452,0,0,0,2.768,3.68V4.923a.616.616,0,0,1-1.232,0V3.68A3.685,3.685,0,0,1,5.217,0Z" transform="translate(0 0)" fill="#11203d" stroke="#11203d" stroke-width="0.2" fill-rule="evenodd"/>
    </g>
  </g>
</svg>
