<svg xmlns="http://www.w3.org/2000/svg" width="13.682" height="15.906" viewBox="0 0 13.682 15.906">
  <g id="Iconly_Light-Outline_Paper" data-name="Iconly/Light-Outline/Paper" transform="translate(-2.901 -1.9)">
    <g id="Paper" transform="translate(3.001 2)">
      <path id="Combined-Shape" d="M8.678,0a.6.6,0,0,1,.1.008h.108a.6.6,0,0,1,.428.182l4,4.172a.593.593,0,0,1,.165.41v7.247a3.651,3.651,0,0,1-3.518,3.685H3.539A3.626,3.626,0,0,1,0,12.178V3.551A3.635,3.635,0,0,1,3.615.009H8.578A.6.6,0,0,1,8.678,0ZM8.085,1.195H3.616a2.44,2.44,0,0,0-2.429,2.37v8.456a2.441,2.441,0,0,0,2.379,2.5H9.942a2.467,2.467,0,0,0,2.355-2.5v-6.5H10.708A2.634,2.634,0,0,1,8.085,2.893ZM8.53,9.969a.593.593,0,1,1,0,1.186H4.261a.593.593,0,1,1,0-1.186ZM6.913,7a.593.593,0,1,1,0,1.186H4.26A.593.593,0,1,1,4.26,7ZM9.271,1.86V2.893A1.446,1.446,0,0,0,10.71,4.336h.938Z" transform="translate(-0.001 0)" stroke="#11203d" stroke-width="0.2" fill-rule="evenodd" fill="#11203d"/>
    </g>
  </g>
</svg>
