<svg xmlns="http://www.w3.org/2000/svg" width="15.61" height="15.417" viewBox="0 0 15.61 15.417">
  <g id="Iconly_Light-Outline_Work" data-name="Iconly/Light-Outline/Work" transform="translate(-1.9 -1.9)">
    <g id="Work" transform="translate(2 2)">
      <path fill="#11203d" id="Combined-Shape" d="M14.857,9.817a.578.578,0,0,1,.533.621l-.146,1.934a3.09,3.09,0,0,1-3.067,2.845H3.234A3.09,3.09,0,0,1,.166,12.372L.02,10.438a.579.579,0,0,1,.533-.621.587.587,0,0,1,.621.533l.146,1.933a1.929,1.929,0,0,0,1.914,1.777h8.942a1.929,1.929,0,0,0,1.914-1.777l.146-1.933A.59.59,0,0,1,14.857,9.817ZM8.7,0a2.285,2.285,0,0,1,2.263,1.988h1.518A2.936,2.936,0,0,1,15.41,4.927V7.578a.578.578,0,0,1-.286.5A14.692,14.692,0,0,1,8.283,9.928v1.387a.578.578,0,0,1-1.156,0V9.928A14.681,14.681,0,0,1,.286,8.077.576.576,0,0,1,0,7.578V4.919a2.937,2.937,0,0,1,2.937-2.93h1.51A2.285,2.285,0,0,1,6.711,0Zm3.781,3.145H2.937A1.779,1.779,0,0,0,1.157,4.919V7.241a13.888,13.888,0,0,0,6.538,1.54h.019l.367,0a13.771,13.771,0,0,0,6.173-1.536V4.927A1.779,1.779,0,0,0,12.481,3.145ZM8.7,1.156H6.711a1.128,1.128,0,0,0-1.087.832H9.786A1.128,1.128,0,0,0,8.7,1.156Z" transform="translate(0 0)" stroke="#11203d" stroke-width="0.2" fill-rule="evenodd"/>
    </g>
  </g>
</svg>
