<svg xmlns="http://www.w3.org/2000/svg" width="14.68" height="13.932" viewBox="0 0 14.68 13.932">
  <g id="Iconly_Light-Outline_Star" data-name="Iconly/Light-Outline/Star" transform="translate(-1.887 -2.9)">
    <path id="Star" d="M9.227,4.112a.349.349,0,0,0-.322.195L7.552,7.013a1.467,1.467,0,0,1-1.1.793l-3.03.437a.346.346,0,0,0-.289.239.328.328,0,0,0,.09.345l2.191,2.105a1.447,1.447,0,0,1,.425,1.294L5.318,15.2a.331.331,0,0,0,.136.331.351.351,0,0,0,.383.029l2.709-1.4a1.485,1.485,0,0,1,1.361,0l2.709,1.4A.358.358,0,0,0,13,15.53a.331.331,0,0,0,.136-.331l-.517-2.973a1.447,1.447,0,0,1,.425-1.294l2.191-2.105a.325.325,0,0,0,.09-.345.344.344,0,0,0-.288-.239l-3.03-.437a1.466,1.466,0,0,1-1.1-.794L9.548,4.307a.348.348,0,0,0-.321-.195m-3.56,12.6a1.474,1.474,0,0,1-.87-.286,1.442,1.442,0,0,1-.574-1.42l.516-2.973a.337.337,0,0,0-.1-.3L2.448,9.629A1.437,1.437,0,0,1,2.07,8.142a1.453,1.453,0,0,1,1.188-1l3.03-.437a.352.352,0,0,0,.268-.191L7.912,3.809A1.461,1.461,0,0,1,9.227,3h0a1.462,1.462,0,0,1,1.316.809L11.9,6.515a.353.353,0,0,0,.268.191l3.03.437a1.453,1.453,0,0,1,1.188,1,1.438,1.438,0,0,1-.378,1.487l-2.191,2.105a.336.336,0,0,0-.1.3l.517,2.973a1.442,1.442,0,0,1-.575,1.42,1.463,1.463,0,0,1-1.553.117L9.4,15.141a.369.369,0,0,0-.339,0l-2.708,1.4a1.476,1.476,0,0,1-.683.168" transform="translate(0)" fill="#11203d" stroke="#11203d" stroke-width="0.2" fill-rule="evenodd"/>
  </g>
</svg>
