<svg xmlns="http://www.w3.org/2000/svg" width="14.16" height="12.39" viewBox="0 0 14.16 12.39">
  <g id="menu-left-alt" transform="translate(-6 -7.5)">
    <path id="Path_21246" data-name="Path 21246" d="M6,8.385A.885.885,0,0,1,6.885,7.5h12.39a.885.885,0,1,1,0,1.77H6.885A.885.885,0,0,1,6,8.385Z" fill="#fff"/>
    <path id="Path_21247" data-name="Path 21247" d="M6,26.385a.885.885,0,0,1,.885-.885h12.39a.885.885,0,1,1,0,1.77H6.885A.885.885,0,0,1,6,26.385Z" transform="translate(0 -7.38)" fill="#fff"/>
    <path id="Path_21248" data-name="Path 21248" d="M7.416,16.5c-.782,0-1.416.4-1.416.885s.634.885,1.416.885H18.744c.782,0,1.416-.4,1.416-.885s-.634-.885-1.416-.885Z" transform="translate(0 -3.69)" fill="#fff"/>
  </g>
</svg>
