<svg xmlns="http://www.w3.org/2000/svg" width="10.618" height="10.618" viewBox="0 0 10.618 10.618">
  <g id="Icon_ionic-ios-checkmark-circle-outline" data-name="Icon ionic-ios-checkmark-circle-outline" transform="translate(-3.375 -3.375)">
    <path id="Path_21269" data-name="Path 21269" d="M15.9,12.7l-.449-.462a.1.1,0,0,0-.071-.031h0a.093.093,0,0,0-.071.031L12.2,15.374,11.062,14.24a.1.1,0,0,0-.143,0l-.454.454a.1.1,0,0,0,0,.145l1.429,1.429a.452.452,0,0,0,.3.145.474.474,0,0,0,.3-.14h0l3.412-3.43A.109.109,0,0,0,15.9,12.7Z" transform="translate(-4.497 -5.626)" fill="#1f9cef"/>
    <path id="Path_21270" data-name="Path 21270" d="M8.684,4.09A4.592,4.592,0,1,1,5.435,5.435,4.564,4.564,0,0,1,8.684,4.09m0-.715a5.309,5.309,0,1,0,5.309,5.309A5.308,5.308,0,0,0,8.684,3.375Z" fill="#1f9cef"/>
  </g>
</svg>
