<svg xmlns="http://www.w3.org/2000/svg" width="16.269" height="16.269" viewBox="0 0 16.269 16.269">
  <g id="Iconly_Light-Outline_Chart" data-name="Iconly/Light-Outline/Chart" transform="translate(-0.9 -0.9)">
    <g id="Chart" transform="translate(1 1)">
      <path id="Combined-Shape" d="M11.537,0a4.39,4.39,0,0,1,4.532,4.735v6.6a4.39,4.39,0,0,1-4.532,4.735h-7A4.39,4.39,0,0,1,0,11.334v-6.6A4.39,4.39,0,0,1,4.532,0Zm0,1.121h-7A3.3,3.3,0,0,0,1.121,4.735v6.6a3.3,3.3,0,0,0,3.411,3.614h7a3.3,3.3,0,0,0,3.411-3.614v-6.6A3.3,3.3,0,0,0,11.537,1.121ZM4.575,6.13a.561.561,0,0,1,.561.561v5.127a.561.561,0,0,1-1.121,0V6.691A.561.561,0,0,1,4.575,6.13ZM8.063,3.676a.561.561,0,0,1,.561.561v7.581a.561.561,0,1,1-1.121,0V4.237A.561.561,0,0,1,8.063,3.676ZM11.494,8.84a.561.561,0,0,1,.561.561v2.417a.561.561,0,1,1-1.121,0V9.4A.561.561,0,0,1,11.494,8.84Z" fill="#1f9cef" stroke="#1f9cef" stroke-width="0.2" fill-rule="evenodd"/>
    </g>
  </g>
</svg>
