<svg xmlns="http://www.w3.org/2000/svg" width="74" height="74" viewBox="0 0 74 74">
  <g id="Group_13117" data-name="Group 13117" transform="translate(-177 -534)">
    <circle id="Ellipse_577" data-name="Ellipse 577" cx="37" cy="37" r="37" transform="translate(177 534)" fill="#c4e4fe"/>
    <circle id="Ellipse_576" data-name="Ellipse 576" cx="29" cy="29" r="29" transform="translate(185 542)" fill="#1f9cef"/>
    <g id="cloud-upload" transform="translate(198.385 555.385)">
      <path id="Path_21250" data-name="Path 21250" d="M22.552,19.125l-5.446-5.446L11.66,19.125l1.366,1.366,3.114-3.114v14.5h1.932v-14.5l3.114,3.114,1.366-1.366Z" transform="translate(-1.489 -1.774)" fill="#fff"/>
      <path id="Path_21251" data-name="Path 21251" d="M24.309,9.907V9.819a8.694,8.694,0,0,0-17.388,0v.15A7.383,7.383,0,0,0,3.13,11.944a6.6,6.6,0,0,0-2.005,4.735A7.024,7.024,0,0,0,3.3,21.719a7.339,7.339,0,0,0,5.075,2.108h3.861V21.895H8.375a5.406,5.406,0,0,1-5.318-5.216,5.108,5.108,0,0,1,4.9-4.9l.9-.064v-1.9a6.762,6.762,0,0,1,13.524,0v1.935l.954.012a4.759,4.759,0,0,1,4.842,4.913,5.012,5.012,0,0,1-4.9,5.216H19v1.932h4.276a6.626,6.626,0,0,0,4.9-2.141,7.313,7.313,0,0,0,1.934-5.007A6.687,6.687,0,0,0,24.309,9.907Z" fill="#fff"/>
    </g>
  </g>
</svg>
