<svg xmlns="http://www.w3.org/2000/svg" width="380.367" height="346.3" viewBox="0 0 380.367 346.3">
  <g id="Group_13115" data-name="Group 13115" transform="translate(-24 -116.7)">
    <rect id="Rectangle_7976" data-name="Rectangle 7976" width="220" height="220" rx="110" transform="translate(104 243)" fill="#eff3f4" opacity="0.48"/>
    <g id="undraw_add_to_cart_re_wrdo" transform="translate(24 146.895)">
      <path id="Path_21138" data-name="Path 21138" d="M576.734,170.92H200.581a2.109,2.109,0,0,1-2.107-2.107V156.419a2.109,2.109,0,0,1,2.107-2.107H576.734a2.109,2.109,0,0,1,2.107,2.107v12.394A2.109,2.109,0,0,1,576.734,170.92Z" transform="translate(-198.474 -154.312)" fill="#f7f9fa"/>
      <circle id="a7a88a4d-66b2-4c09-a29b-e65e87e57a01" cx="2.991" cy="2.991" r="2.991" transform="translate(9.236 4.708)" fill="#fff"/>
      <circle id="ecd091ab-fa27-42b2-b94f-bd1073aab054" cx="2.991" cy="2.991" r="2.991" transform="translate(20.59 4.708)" fill="#fff"/>
      <circle id="a332723e-32dc-4e13-8ae5-d2643a7feb7f" cx="2.991" cy="2.991" r="2.991" transform="translate(31.945 4.708)" fill="#fff"/>
      <path id="Path_21139" data-name="Path 21139" d="M957.985,164.068H944.911a.968.968,0,1,1,0-1.937h13.075a.968.968,0,1,1,0,1.937Z" transform="translate(-590.85 -158.428)" fill="#fff"/>
      <path id="Path_21140" data-name="Path 21140" d="M957.985,171.737H944.911a.968.968,0,1,1,0-1.937h13.075a.968.968,0,1,1,0,1.937Z" transform="translate(-590.85 -162.464)" fill="#fff"/>
      <path id="Path_21141" data-name="Path 21141" d="M957.985,179.4H944.911a.968.968,0,1,1,0-1.937h13.075a.969.969,0,0,1,0,1.937Z" transform="translate(-590.85 -166.5)" fill="#fff"/>
      <path id="Path_21142" data-name="Path 21142" d="M424.561,645.7c1.384-11.13,8.282-22.1,18.9-25.718a51.675,51.675,0,0,0,0,35.478c1.631,4.412,3.9,9.149,2.37,13.6a11.551,11.551,0,0,1-5.9,6.207,34.3,34.3,0,0,1-8.368,2.573L431,678.3C426.457,668.043,423.177,656.827,424.561,645.7Z" transform="translate(-317.306 -399.415)" fill="#f7f9fa"/>
      <path id="Path_21143" data-name="Path 21143" d="M450.791,619.927a44.168,44.168,0,0,0-10.98,24.858,19.021,19.021,0,0,0,.216,5.956,10.908,10.908,0,0,0,2.713,5.06,22.587,22.587,0,0,1,3.5,4.194,6.68,6.68,0,0,1,.326,5.453,17.355,17.355,0,0,1-3.846,5.736c-1.721,1.9-3.539,3.853-4.271,6.377-.089.306-.558.15-.469-.155,1.273-4.391,5.535-6.885,7.568-10.839a6.765,6.765,0,0,0,.457-5.935,17.514,17.514,0,0,0-3.477-4.325,11.641,11.641,0,0,1-2.837-4.849,17.58,17.58,0,0,1-.445-5.925,42.851,42.851,0,0,1,3.13-13.022,44.95,44.95,0,0,1,8.083-12.953c.211-.237.537.136.327.371Z" transform="translate(-324.534 -399.153)" fill="#fff"/>
      <path id="Path_21144" data-name="Path 21144" d="M436.507,658.623a6.627,6.627,0,0,1-5.044-6.942.247.247,0,0,1,.494.025,6.136,6.136,0,0,0,4.705,6.448C436.971,658.227,436.814,658.7,436.507,658.623Z" transform="translate(-321.097 -415.983)" fill="#fff"/>
      <path id="Path_21145" data-name="Path 21145" d="M446.4,686.537a12.772,12.772,0,0,0,5.7-7.356c.09-.305.559-.15.469.155a13.285,13.285,0,0,1-5.951,7.642C446.349,687.141,446.128,686.7,446.4,686.537Z" transform="translate(-328.904 -430.489)" fill="#fff"/>
      <path id="Path_21146" data-name="Path 21146" d="M451.975,637.713a3.751,3.751,0,0,0,3.555-.18c.272-.166.492.277.222.442a4.2,4.2,0,0,1-3.932.208.255.255,0,0,1-.157-.312A.248.248,0,0,1,451.975,637.713Z" transform="translate(-331.734 -408.635)" fill="#fff"/>
      <path id="Path_21147" data-name="Path 21147" d="M483.051,660.634c-.167.108-.334.217-.5.33a49.4,49.4,0,0,0-6.316,4.931c-.154.138-.309.279-.459.421a52.079,52.079,0,0,0-11.31,15.482,50.58,50.58,0,0,0-2.77,7.167c-1.022,3.392-1.861,7.151-3.884,9.925a8.675,8.675,0,0,1-.676.834H438.85c-.042-.021-.083-.038-.125-.059l-.73.033c.029-.129.063-.263.092-.392.017-.075.037-.15.054-.225.012-.05.025-.1.033-.146,0-.017.008-.033.012-.046.008-.046.021-.088.029-.129q.275-1.12.567-2.24s0,0,0-.008a74.359,74.359,0,0,1,6.258-16.429c.083-.154.167-.313.259-.467a48.258,48.258,0,0,1,4.335-6.575,42.677,42.677,0,0,1,2.841-3.25,35.476,35.476,0,0,1,8.878-6.65c6.558-3.463,14.151-4.789,21.16-2.674C482.7,660.522,482.872,660.576,483.051,660.634Z" transform="translate(-324.545 -420.191)" fill="#f7f9fa"/>
      <path id="Path_21148" data-name="Path 21148" d="M483.105,661.886a44.168,44.168,0,0,0-23.733,13.237,19.019,19.019,0,0,0-3.413,4.885,10.909,10.909,0,0,0-.88,5.674,22.578,22.578,0,0,1,.273,5.458,6.679,6.679,0,0,1-3.023,4.55,17.354,17.354,0,0,1-6.524,2.265c-2.52.484-5.146.946-7.25,2.52-.255.191-.536-.216-.281-.406,3.66-2.739,8.564-2.164,12.568-4.1a6.765,6.765,0,0,0,3.939-4.464,17.516,17.516,0,0,0-.172-5.547,11.641,11.641,0,0,1,.654-5.58,17.586,17.586,0,0,1,3.213-5,42.854,42.854,0,0,1,10.339-8.513,44.95,44.95,0,0,1,14.252-5.476c.311-.062.347.432.038.493Z" transform="translate(-324.64 -421.211)" fill="#fff"/>
      <path id="Path_21149" data-name="Path 21149" d="M485.287,675.884a6.626,6.626,0,0,1,.152-8.579c.211-.238.591.079.379.317a6.136,6.136,0,0,0-.125,7.981C485.9,675.848,485.488,676.128,485.287,675.884Z" transform="translate(-348.647 -424.281)" fill="#fff"/>
      <path id="Path_21150" data-name="Path 21150" d="M473.113,708a12.772,12.772,0,0,0,8.983-2.439c.256-.19.537.217.281.406a13.285,13.285,0,0,1-9.352,2.519C472.708,708.451,472.8,707.964,473.113,708Z" transform="translate(-342.879 -444.435)" fill="#fff"/>
      <path id="Path_21151" data-name="Path 21151" d="M511.842,668.673a3.751,3.751,0,0,0,2.947,2c.317.031.227.517-.088.486a4.2,4.2,0,0,1-3.265-2.2.256.256,0,0,1,.062-.344.248.248,0,0,1,.344.062Z" transform="translate(-363.179 -424.99)" fill="#fff"/>
      <path id="Path_21152" data-name="Path 21152" d="M383.7,284.47h-60.5a7.059,7.059,0,0,1-7.051-7.052v-32.95a7.059,7.059,0,0,1,7.051-7.051h60.5a7.059,7.059,0,0,1,7.051,7.051v32.95A7.059,7.059,0,0,1,383.7,284.47Z" transform="translate(-260.415 -198.055)" fill="#1f9cef"/>
      <path id="Path_21153" data-name="Path 21153" d="M578.7,284.47h-60.5a7.059,7.059,0,0,1-7.051-7.052v-32.95a7.059,7.059,0,0,1,7.051-7.051h60.5a7.059,7.059,0,0,1,7.051,7.051v32.95A7.059,7.059,0,0,1,578.7,284.47Z" transform="translate(-363.053 -198.055)" fill="#1f9cef"/>
      <path id="Path_21154" data-name="Path 21154" d="M773.7,284.47h-60.5a7.06,7.06,0,0,1-7.051-7.052v-32.95a7.059,7.059,0,0,1,7.051-7.051h60.5a7.059,7.059,0,0,1,7.051,7.051v32.95A7.059,7.059,0,0,1,773.7,284.47Z" transform="translate(-465.691 -198.055)" fill="#1f9cef"/>
      <path id="Path_21155" data-name="Path 21155" d="M383.7,439.47h-60.5a7.059,7.059,0,0,1-7.051-7.052v-32.95a7.059,7.059,0,0,1,7.051-7.051h60.5a7.059,7.059,0,0,1,7.051,7.051v32.95A7.059,7.059,0,0,1,383.7,439.47Z" transform="translate(-260.415 -279.639)" fill="#1f9cef"/>
      <path id="Path_21156" data-name="Path 21156" d="M578.7,439.47h-60.5a7.059,7.059,0,0,1-7.051-7.052v-32.95a7.059,7.059,0,0,1,7.051-7.051h60.5a7.059,7.059,0,0,1,7.051,7.051v32.95A7.059,7.059,0,0,1,578.7,439.47Z" transform="translate(-363.053 -279.639)" fill="#1f9cef"/>
      <g id="aa405d94-515b-444f-88dd-2c52df39214d" transform="translate(205.401 144.284)">
        <circle id="ede3a9f0-5e02-4455-ac7e-751a5f8c3692" cx="10.805" cy="10.805" r="10.805" fill="#0f141a"/>
        <path id="ba039ca8-d148-45ed-9781-bacb7304e881" d="M661.211,474.787h-3.674v-3.674a.864.864,0,0,0-.864-.864h0a.864.864,0,0,0-.865.864v3.674h-3.674a.864.864,0,0,0-.864.864h0a.864.864,0,0,0,.864.865h3.674v3.674a.864.864,0,0,0,.865.864h0a.864.864,0,0,0,.865-.864v-3.674h3.674a.864.864,0,0,0,.864-.864h0a.864.864,0,0,0-.864-.865h0Z" transform="translate(-645.92 -464.889)" fill="#fff"/>
      </g>
      <g id="bbf41f8a-587e-4352-8304-6d86282586e3" transform="translate(299.184 72.763)">
        <path id="e4c91425-bc08-43ed-9b2d-9a6452dd6ab0" d="M10.805,0A10.805,10.805,0,1,1,0,10.805,10.805,10.805,0,0,1,10.805,0Z" fill="#0f141a"/>
        <path id="b08e8960-896e-4763-a2dc-6c3da3e5d175" d="M859.211,323.787h-3.674v-3.674a.864.864,0,0,0-.864-.864h0a.864.864,0,0,0-.864.864v3.674h-3.674a.864.864,0,0,0-.864.864h0a.865.865,0,0,0,.865.864h3.674v3.674a.864.864,0,0,0,.864.864h0a.865.865,0,0,0,.865-.864v-3.674h3.674a.864.864,0,0,0,.864-.864h0a.864.864,0,0,0-.864-.864h0Z" transform="translate(-843.92 -313.889)" fill="#fff"/>
      </g>
      <g id="b77ad267-181d-433f-b31f-af61e58bf4a6" transform="translate(113.039 71.815)">
        <path id="e8aef769-5476-47e9-8295-ae809767f9aa" d="M10.805,0A10.805,10.805,0,1,1,0,10.805,10.805,10.805,0,0,1,10.805,0Z" fill="#0f141a"/>
        <path id="efbebd4e-dbd2-4103-8d2c-f0ca8346a3bf" d="M466.211,321.787h-3.674v-3.674a.864.864,0,0,0-.865-.864h0a.864.864,0,0,0-.864.864h0v3.674h-3.674a.865.865,0,0,0-.865.864h0a.865.865,0,0,0,.865.864h3.674v3.674a.864.864,0,0,0,.864.864h0a.865.865,0,0,0,.865-.864v-3.674h3.674a.864.864,0,0,0,.864-.864h0a.864.864,0,0,0-.864-.864h0Z" transform="translate(-450.92 -311.889)" fill="#fff"/>
      </g>
      <g id="b77ad267-181d-433f-b31f-af61e58bf4a6-2" data-name="b77ad267-181d-433f-b31f-af61e58bf4a6" transform="translate(113.039 144.284)">
        <path id="e8aef769-5476-47e9-8295-ae809767f9aa-2" data-name="e8aef769-5476-47e9-8295-ae809767f9aa" d="M10.805,0A10.805,10.805,0,1,1,0,10.805,10.805,10.805,0,0,1,10.805,0Z" fill="#0f141a"/>
        <path id="efbebd4e-dbd2-4103-8d2c-f0ca8346a3bf-2" data-name="efbebd4e-dbd2-4103-8d2c-f0ca8346a3bf" d="M466.211,321.787h-3.674v-3.674a.864.864,0,0,0-.865-.864h0a.864.864,0,0,0-.864.864h0v3.674h-3.674a.865.865,0,0,0-.865.864h0a.865.865,0,0,0,.865.864h3.674v3.674a.864.864,0,0,0,.864.864h0a.865.865,0,0,0,.865-.864v-3.674h3.674a.864.864,0,0,0,.864-.864h0a.864.864,0,0,0-.864-.864h0Z" transform="translate(-450.92 -311.889)" fill="#fff"/>
      </g>
      <path id="Path_21157" data-name="Path 21157" d="M620.063,293.909a4.3,4.3,0,0,1-3.468,5.6l-5,34.1-8.2-4,8.243-34.041a4.319,4.319,0,0,1,8.416-1.66Z" transform="translate(-411.608 -226.215)" fill="#ccd6de"/>
      <path id="Path_21158" data-name="Path 21158" d="M503.864,480.435a4.3,4.3,0,0,0-1.654-6.376l3.371-36.275-7.06,3.619-2.2,34.956a4.319,4.319,0,0,0,7.547,4.077Z" transform="translate(-355.083 -303.517)" fill="#ccd6de"/>
      <path id="Path_21159" data-name="Path 21159" d="M321.061,298.529l30.3-1.165L353.1,265.9H318.148Z" transform="translate(-167.457 -139.958)" fill="#ccd6de"/>
      <path id="Path_21160" data-name="Path 21160" d="M312.426,547.165H317.6l2.463-19.968h-7.64Z" transform="translate(-164.445 -277.49)" fill="#ccd6de"/>
      <path id="Path_21161" data-name="Path 21161" d="M507.043,717.733l8.184-.489v3.506l7.78,5.373a2.19,2.19,0,0,1-1.245,3.992H512.02l-1.679-3.468-.656,3.468h-3.673Z" transform="translate(-360.346 -450.611)" fill="#2f2e41"/>
      <path id="Path_21162" data-name="Path 21162" d="M361.04,547.165h5.177l2.463-19.968h-7.64Z" transform="translate(-190.032 -277.49)" fill="#ccd6de"/>
      <path id="Path_21163" data-name="Path 21163" d="M515.016,471.407s-9.065,7.318-4.151,33.453c-.748.089.1,1.564.1,1.564l.709,21.3.548,2.441L510.4,534.1l.751,4.279-2.315,38.835,8.553,1.106,8.185-40.328,1.559-4.534,1.564-3.974-.843-4.238.692-6.578,4.719-22.181,1.155,38.469-1.612,3.673.9,4.032-2,2.14-.79,35.993,9.12.427,7.546-36.283-.585-4.63,1-3.424v-8l1.719-3.774,3.749-20.579s1.131-16.084-7.12-35.012Z" transform="translate(-361.832 -320.221)" fill="#fff" stroke="#0f141a" stroke-width="1"/>
      <path id="Path_21164" data-name="Path 21164" d="M511.167,365.013s-11.449,2.264-13.422,12.028S494.5,408.9,494.5,408.9l.432,3.077,11.075,2.568,7.069-30.959Z" transform="translate(-354.288 -265.215)" fill="#0f141a"/>
      <path id="Path_21165" data-name="Path 21165" d="M584.847,352.308s1.161-1.626,7.659-1.877c.268-.01-.064-.541-.064-.541l3.126-15.277,10.416,5.767L604.226,356.4,587.11,375.863Z" transform="translate(-401.841 -249.213)" fill="#0f141a"/>
      <path id="Path_21166" data-name="Path 21166" d="M537.083,407.822a166.109,166.109,0,0,1-23.4-2.19,3.394,3.394,0,0,1-2.848-2.841,2.569,2.569,0,0,1-.432-2.918l.01-.02-.252-.3a2.748,2.748,0,0,1-.183-3.321l-3.441-24.618a10.371,10.371,0,0,1,7.213-11.378l1.27-.4,4.8-6.284h.095l15.422.205,5.005,6.356,8.09,1.908.021.123,1.879,10.853c.977,5.645-1.264,7.865-4.124,12.829l.839,13.942.381.692a1.875,1.875,0,0,1-.449,2.353,3.653,3.653,0,0,1,.05,2.26l-.2.654c0,.019-.052.285-.479.609C545.589,406.93,543.378,407.822,537.083,407.822Z" transform="translate(-360.569 -259.186)" fill="#0f141a"/>
      <path id="Path_21167" data-name="Path 21167" d="M555.657,717.733l8.184-.489v3.506l7.78,5.373a2.19,2.19,0,0,1-1.244,3.992h-9.743l-1.679-3.468-.656,3.468h-3.673Z" transform="translate(-385.934 -450.611)" fill="#2f2e41"/>
      <circle id="Ellipse_509" data-name="Ellipse 509" cx="12.091" cy="12.091" r="12.091" transform="translate(152.513 88.742) rotate(-80.783)" fill="#ccd6de"/>
      <path id="Path_21168" data-name="Path 21168" d="M513.549,281.334c-4.432-3.048-8.334-3.512-11.539-2.648a4.214,4.214,0,0,0-1.686-1.5,13.853,13.853,0,0,0-26.507,7.6c.766,4.162,3.386,7.766,4.439,11.865,2.039,7.934-2.936,17.023-10.718,19.581a16.531,16.531,0,0,0,18.124-10.057c1.284-3.417,1.361-7.149,1.525-10.8a35.794,35.794,0,0,1,.92-7.476,15.972,15.972,0,0,1,1.19-3.183,10.893,10.893,0,0,1,5.213-5.057,4.157,4.157,0,0,0,.607,3.743,11.065,11.065,0,0,0-2.669,5.908c-3.59,6.561,1.544,12.2,8.105,15.787a13.442,13.442,0,0,0,8.589,1.5l.275-1.172.372,1.056,1.242,3.539q2.148,1.039,4.259,2.279c-.535-2.511-.967-5.017-1.265-7.468-.412-3.335,1.025-8.3,2.061-11.321a17.823,17.823,0,0,0,.976-5.785v-.086l1.009,3.241,3.674-1.567C521.059,285.4,521.743,280.948,513.549,281.334Z" transform="translate(-340.095 -214.405)" fill="#0f141a"/>
      <path id="Path_21170" data-name="Path 21170" d="M761.39,438.878h-37.9a4.422,4.422,0,0,1-4.417-4.417V413.819a4.422,4.422,0,0,1,4.417-4.417h37.9a4.422,4.422,0,0,1,4.417,4.417v20.641a4.422,4.422,0,0,1-4.417,4.417Z" transform="translate(-472.491 -288.579)" fill="#1f9cef"/>
      <g id="bc9af32e-f7cd-4c85-a4cc-5543d455b8de" transform="translate(283.719 130.438)">
        <circle id="b56288f5-6382-4006-aaf1-aded98dde780" cx="5.738" cy="5.738" r="5.738" fill="#0f141a"/>
        <path id="b9aaef6b-2cfc-46ac-8dc0-30fdc28925de" d="M808.756,438.121H806.8V436.17a.459.459,0,0,0-.459-.459h0a.459.459,0,0,0-.459.459v1.951h-1.951a.459.459,0,0,0-.459.459h0a.459.459,0,0,0,.459.459h1.951v1.951a.459.459,0,0,0,.459.459h0a.459.459,0,0,0,.459-.459v-1.951h1.951a.459.459,0,0,0,.459-.459h0a.459.459,0,0,0-.459-.459Z" transform="translate(-800.635 -432.865)" fill="#fff"/>
      </g>
      <path id="Path_21171" data-name="Path 21171" d="M800.748,431.969H769.517a5.005,5.005,0,0,1-5-5V408.326a.921.921,0,0,1,1.842,0v4.993l36.277,3.3a2.767,2.767,0,0,1,2.718,2.763.927.927,0,0,1-.016.17l-1.828,9.75A2.766,2.766,0,0,1,800.748,431.969Zm-34.389-16.8v11.8a3.161,3.161,0,0,0,3.158,3.157h31.232a.922.922,0,0,0,.921-.921.921.921,0,0,1,.016-.17l1.824-9.727a.922.922,0,0,0-.918-.85c-.028,0-.056,0-.083,0Z" transform="translate(-496.41 -287.528)" fill="#0f141a"/>
      <circle id="Ellipse_510" data-name="Ellipse 510" cx="1.535" cy="1.535" r="1.535" transform="translate(263.273 149.968)" fill="#0f141a"/>
      <circle id="Ellipse_511" data-name="Ellipse 511" cx="1.535" cy="1.535" r="1.535" transform="translate(301.575 149.968)" fill="#0f141a"/>
      <path id="Path_21172" data-name="Path 21172" d="M795,468.887H753.934a.921.921,0,0,1,0-1.842H795a.921.921,0,0,1,0,1.842Z" transform="translate(-490.355 -318.919)" fill="#0f141a"/>
      <path id="Path_21173" data-name="Path 21173" d="M761.753,408.6h-7.983a.921.921,0,0,1,0-1.842h7.983a.921.921,0,0,1,0,1.842Z" transform="translate(-490.268 -287.187)" fill="#0f141a"/>
      <path id="Path_21174" data-name="Path 21174" d="M777.418,462.115a.917.917,0,0,1-.6-.222l-6.055-5.2a.921.921,0,0,1,1.2-1.4l6.054,5.2a.921.921,0,0,1-.6,1.62Z" transform="translate(-499.529 -312.616)" fill="#0f141a"/>
      <path id="Path_21175" data-name="Path 21175" d="M786.838,439.592a.921.921,0,0,1-.921-.921V423.884a.921.921,0,1,1,1.842,0v14.786a.921.921,0,0,1-.921.921Z" transform="translate(-507.674 -295.717)" fill="#0f141a"/>
      <path id="Path_21176" data-name="Path 21176" d="M827.92,440.957a.921.921,0,0,1-.921-.921V426.477a.921.921,0,0,1,1.842,0v13.558a.921.921,0,0,1-.921.921Z" transform="translate(-529.297 -297.081)" fill="#0f141a"/>
    </g>
    <g id="Group_13106" data-name="Group 13106">
      <g id="star-filled" transform="translate(43.107 120.922) rotate(-21)" fill="none">
        <path d="M9.541,2.25l-2.5,5.074-5.6.809,4.05,3.951-.957,5.574,5.008-2.631,5.008,2.631-.958-5.575,4.05-3.946-5.6-.814Z" stroke="none"/>
        <path d="M 9.540555953979492 4.50969409942627 L 7.700406074523926 8.238523483276367 L 3.589184761047363 8.832867622375488 L 6.56480598449707 11.73589324951172 L 5.861486434936523 15.83113861083984 L 9.540535926818848 13.89835357666016 L 13.219970703125 15.83115577697754 L 12.51618576049805 11.73497295379639 L 15.4917631149292 8.836300849914551 L 11.38044548034668 8.237983703613281 L 9.540555953979492 4.50969409942627 M 9.540555953979492 2.250003814697266 L 12.04458618164062 7.324103355407715 L 17.64111518859863 8.138553619384766 L 13.59083557128906 12.084153175354 L 14.54861640930176 17.65866279602051 L 9.540555953979492 15.0279426574707 L 4.532985687255859 17.65866279602051 L 5.490276336669922 12.08464336395264 L 1.439996719360352 8.133172988891602 L 7.036525726318359 7.324103355407715 L 9.540555953979492 2.250003814697266 Z" stroke="none" fill="#0f141a"/>
      </g>
      <g id="star-filled-2" data-name="star-filled" transform="translate(42.214 314.208) rotate(34)" fill="none">
        <path d="M9.541,2.25l-2.5,5.074-5.6.809,4.05,3.951-.957,5.574,5.008-2.631,5.008,2.631-.958-5.575,4.05-3.946-5.6-.814Z" stroke="none"/>
        <path d="M 9.540555953979492 4.50969409942627 L 7.700406074523926 8.238523483276367 L 3.589184761047363 8.832867622375488 L 6.56480598449707 11.73589324951172 L 5.861486434936523 15.83113861083984 L 9.540535926818848 13.89835357666016 L 13.219970703125 15.83115577697754 L 12.51618576049805 11.73497295379639 L 15.4917631149292 8.836300849914551 L 11.38044548034668 8.237983703613281 L 9.540555953979492 4.50969409942627 M 9.540555953979492 2.250003814697266 L 12.04458618164062 7.324103355407715 L 17.64111518859863 8.138553619384766 L 13.59083557128906 12.084153175354 L 14.54861640930176 17.65866279602051 L 9.540555953979492 15.0279426574707 L 4.532985687255859 17.65866279602051 L 5.490276336669922 12.08464336395264 L 1.439996719360352 8.133172988891602 L 7.036525726318359 7.324103355407715 L 9.540555953979492 2.250003814697266 Z" stroke="none" fill="#0f141a"/>
      </g>
      <g id="star-filled-3" data-name="star-filled" transform="translate(366.214 134.221) rotate(34)" fill="none">
        <path d="M9.541,2.25l-2.5,5.074-5.6.809,4.05,3.951-.957,5.574,5.008-2.631,5.008,2.631-.958-5.575,4.05-3.946-5.6-.814Z" stroke="none"/>
        <path d="M 9.540555953979492 4.50969409942627 L 7.700406074523926 8.238523483276367 L 3.589184761047363 8.832867622375488 L 6.56480598449707 11.73589324951172 L 5.861486434936523 15.83113861083984 L 9.540535926818848 13.89835357666016 L 13.219970703125 15.83115577697754 L 12.51618576049805 11.73497295379639 L 15.4917631149292 8.836300849914551 L 11.38044548034668 8.237983703613281 L 9.540555953979492 4.50969409942627 M 9.540555953979492 2.250003814697266 L 12.04458618164062 7.324103355407715 L 17.64111518859863 8.138553619384766 L 13.59083557128906 12.084153175354 L 14.54861640930176 17.65866279602051 L 9.540555953979492 15.0279426574707 L 4.532985687255859 17.65866279602051 L 5.490276336669922 12.08464336395264 L 1.439996719360352 8.133172988891602 L 7.036525726318359 7.324103355407715 L 9.540555953979492 2.250003814697266 Z" stroke="none" fill="#0f141a"/>
      </g>
      <g id="star-filled-4" data-name="star-filled" transform="translate(248.214 428.208) rotate(34)" fill="none">
        <path d="M9.541,2.25l-2.5,5.074-5.6.809,4.05,3.951-.957,5.574,5.008-2.631,5.008,2.631-.958-5.575,4.05-3.946-5.6-.814Z" stroke="none"/>
        <path d="M 9.540555953979492 4.50969409942627 L 7.700406074523926 8.238523483276367 L 3.589184761047363 8.832867622375488 L 6.56480598449707 11.73589324951172 L 5.861486434936523 15.83113861083984 L 9.540535926818848 13.89835357666016 L 13.219970703125 15.83115577697754 L 12.51618576049805 11.73497295379639 L 15.4917631149292 8.836300849914551 L 11.38044548034668 8.237983703613281 L 9.540555953979492 4.50969409942627 M 9.540555953979492 2.250003814697266 L 12.04458618164062 7.324103355407715 L 17.64111518859863 8.138553619384766 L 13.59083557128906 12.084153175354 L 14.54861640930176 17.65866279602051 L 9.540555953979492 15.0279426574707 L 4.532985687255859 17.65866279602051 L 5.490276336669922 12.08464336395264 L 1.439996719360352 8.133172988891602 L 7.036525726318359 7.324103355407715 L 9.540555953979492 2.250003814697266 Z" stroke="none" fill="#0f141a"/>
      </g>
      <g id="star-filled-5" data-name="star-filled" transform="translate(380.996 330.456) rotate(-9)" fill="none">
        <path d="M9.541,2.25l-2.5,5.074-5.6.809,4.05,3.951-.957,5.574,5.008-2.631,5.008,2.631-.958-5.575,4.05-3.946-5.6-.814Z" stroke="none"/>
        <path d="M 9.540555953979492 4.50969409942627 L 7.700406074523926 8.238523483276367 L 3.589184761047363 8.832867622375488 L 6.56480598449707 11.73589324951172 L 5.861486434936523 15.83113861083984 L 9.540535926818848 13.89835357666016 L 13.219970703125 15.83115577697754 L 12.51618576049805 11.73497295379639 L 15.4917631149292 8.836300849914551 L 11.38044548034668 8.237983703613281 L 9.540555953979492 4.50969409942627 M 9.540555953979492 2.250003814697266 L 12.04458618164062 7.324103355407715 L 17.64111518859863 8.138553619384766 L 13.59083557128906 12.084153175354 L 14.54861640930176 17.65866279602051 L 9.540555953979492 15.0279426574707 L 4.532985687255859 17.65866279602051 L 5.490276336669922 12.08464336395264 L 1.439996719360352 8.133172988891602 L 7.036525726318359 7.324103355407715 L 9.540555953979492 2.250003814697266 Z" stroke="none" fill="#0f141a"/>
      </g>
      <g id="Ellipse_572" data-name="Ellipse 572" transform="translate(153 127)" fill="none" stroke="#0f141a" stroke-width="1">
        <circle cx="5" cy="5" r="5" stroke="none"/>
        <circle cx="5" cy="5" r="4.5" fill="none"/>
      </g>
      <g id="Ellipse_573" data-name="Ellipse 573" transform="translate(55 388)" fill="none" stroke="#0f141a" stroke-width="1">
        <circle cx="5" cy="5" r="5" stroke="none"/>
        <circle cx="5" cy="5" r="4.5" fill="none"/>
      </g>
      <g id="Ellipse_574" data-name="Ellipse 574" transform="translate(370 426)" fill="none" stroke="#0f141a" stroke-width="1">
        <circle cx="5" cy="5" r="5" stroke="none"/>
        <circle cx="5" cy="5" r="4.5" fill="none"/>
      </g>
      <g id="Ellipse_575" data-name="Ellipse 575" transform="translate(376 248)" fill="none" stroke="#0f141a" stroke-width="1">
        <circle cx="5" cy="5" r="5" stroke="none"/>
        <circle cx="5" cy="5" r="4.5" fill="none"/>
      </g>
    </g>
  </g>
</svg>
