<svg xmlns="http://www.w3.org/2000/svg" width="367.648" height="386.3" viewBox="0 0 367.648 386.3">
  <g id="Group_13114" data-name="Group 13114" transform="translate(-33.534 -116.7)">
    <rect id="Rectangle_7976" data-name="Rectangle 7976" width="220" height="220" rx="110" transform="translate(104 283)" fill="#eff3f4" opacity="0.48"/>
    <g id="undraw_product_teardown_re_m1pc" transform="translate(12 184.375)">
      <path id="Path_21102" data-name="Path 21102" d="M803.979,678.715l.009-.4a45.778,45.778,0,0,1,17.118-34.474,44.418,44.418,0,0,1,9.543-5.75l.325-.145.055.351c.66,4.2,1.706,8.478,2.193,10.378l3.265-12.742.363-.1a8.682,8.682,0,0,1,9.268,2.961,8.831,8.831,0,0,1,.916,9.853c-.761,1.418-1.509,2.9-2.233,4.329-2.486,4.917-5.057,10-8.8,13.951a27.671,27.671,0,0,1-22.318,8.326Z" transform="translate(-474.329 -380.124)" fill="#f7f9fa"/>
      <path id="Path_21103" data-name="Path 21103" d="M556.675,368.521H472.381a11.448,11.448,0,0,1-11.435-11.435V238.5a52.275,52.275,0,0,1,52.216-52.216h43.514a11.448,11.448,0,0,1,11.435,11.435V357.086a11.448,11.448,0,0,1-11.435,11.435Z" transform="translate(-326.301 -186.287)" fill="#1f9cef"/>
      <path id="Path_21104" data-name="Path 21104" d="M482.59,367.571a4.822,4.822,0,0,0-4.816,4.816v27.067a4.822,4.822,0,0,0,4.816,4.816h81.919a4.822,4.822,0,0,0,4.816-4.816V372.387a4.822,4.822,0,0,0-4.816-4.816Z" transform="translate(-333.563 -264.515)" fill="#fff"/>
      <path id="Path_21105" data-name="Path 21105" d="M564.555,308.223H482.638a5.217,5.217,0,0,1-5.211-5.211A32.314,32.314,0,0,1,509.7,270.735h54.852a5.217,5.217,0,0,1,5.211,5.211v27.067A5.217,5.217,0,0,1,564.555,308.223Z" transform="translate(-333.413 -222.728)" fill="#fff"/>
      <path id="Path_21106" data-name="Path 21106" d="M619.566,402.788h-94.3a2.093,2.093,0,0,1-2.091-2.091V375.85a2.093,2.093,0,0,1,2.091-2.091h94.3a2.093,2.093,0,0,1,2.091,2.091V400.7A2.093,2.093,0,0,1,619.566,402.788Z" transform="translate(-353.154 -267.186)" fill="#fff"/>
      <path id="Path_21107" data-name="Path 21107" d="M619.267,402.883h-94.3a2.488,2.488,0,0,1-2.485-2.485V375.551a2.488,2.488,0,0,1,2.485-2.485h94.3a2.488,2.488,0,0,1,2.485,2.485V400.4A2.488,2.488,0,0,1,619.267,402.883Zm-94.3-29.028a1.7,1.7,0,0,0-1.7,1.7V400.4a1.7,1.7,0,0,0,1.7,1.7h94.3a1.7,1.7,0,0,0,1.7-1.7V375.551a1.7,1.7,0,0,0-1.7-1.7Z" transform="translate(-352.855 -266.886)" fill="#ccc"/>
      <circle id="Ellipse_506" data-name="Ellipse 506" cx="3.393" cy="3.393" r="3.393" transform="translate(176.736 111.566)" fill="#e6e6e6"/>
      <path id="Path_21108" data-name="Path 21108" d="M619.028,402.014H536a1.01,1.01,0,1,1,0-2.02h83.028a1.01,1.01,0,1,1,0,2.02Z" transform="translate(-358.253 -278.506)" fill="#e6e6e6"/>
      <path id="Path_21109" data-name="Path 21109" d="M610.778,409.036H536a1.01,1.01,0,0,1,0-2.021h74.778a1.01,1.01,0,1,1,0,2.021Z" transform="translate(-358.253 -281.537)" fill="#e6e6e6"/>
      <path id="Path_21110" data-name="Path 21110" d="M501.881,633.357l-23.081-9.2a2.093,2.093,0,0,1-1.168-2.716l34.916-87.6a2.093,2.093,0,0,1,2.716-1.168l23.081,9.2a2.093,2.093,0,0,1,1.168,2.716l-34.916,87.6A2.093,2.093,0,0,1,501.881,633.357Z" transform="translate(-333.438 -335.697)" fill="#fff"/>
      <path id="Path_21111" data-name="Path 21111" d="M501.435,633.424l-23.081-9.2A2.488,2.488,0,0,1,476.966,621l34.916-87.6a2.488,2.488,0,0,1,3.229-1.388l23.081,9.2a2.488,2.488,0,0,1,1.388,3.229l-34.916,87.6A2.488,2.488,0,0,1,501.435,633.424ZM477.7,621.288a1.7,1.7,0,0,0,.948,2.2l23.081,9.2a1.7,1.7,0,0,0,2.2-.948l34.916-87.6a1.7,1.7,0,0,0-.948-2.2l-23.081-9.2a1.7,1.7,0,0,0-2.2.948Z" transform="translate(-333.138 -335.398)" fill="#ccc"/>
      <circle id="Ellipse_507" data-name="Ellipse 507" cx="3.393" cy="3.393" r="3.393" transform="translate(180.537 205.306)" fill="#e6e6e6"/>
      <path id="Path_21112" data-name="Path 21112" d="M506.3,631.721a1.011,1.011,0,0,1-.564-1.312l30.742-77.127a1.01,1.01,0,1,1,1.877.748l-30.742,77.127a1.011,1.011,0,0,1-1.313.564Z" transform="translate(-345.596 -344.379)" fill="#e6e6e6"/>
      <path id="Path_21113" data-name="Path 21113" d="M518.191,626.658a1.012,1.012,0,0,1-.564-1.313l27.687-69.463a1.01,1.01,0,1,1,1.877.748L519.5,626.094a1.012,1.012,0,0,1-1.313.564Z" transform="translate(-350.73 -345.501)" fill="#e6e6e6"/>
      <circle id="Ellipse_508" data-name="Ellipse 508" cx="8.93" cy="8.93" r="8.93" transform="translate(216.323 5.583)" fill="#fff"/>
      <path id="Path_21114" data-name="Path 21114" d="M621.1,207.856h-4.017v-4.017a.38.38,0,0,0-.76,0v4.017h-4.017a.38.38,0,0,0,0,.76h4.017v4.017a.38.38,0,1,0,.76,0v-4.017H621.1a.38.38,0,0,0,0-.76Z" transform="translate(-391.455 -193.697)" fill="#e6e6e6"/>
      <path id="Path_21115" data-name="Path 21115" d="M785.432,213.539H755.3a7.39,7.39,0,0,1,0-14.78h30.129a7.39,7.39,0,1,1,0,14.78Z" transform="translate(-450.135 -191.669)" fill="#0f141a"/>
      <rect id="Rectangle_7933" data-name="Rectangle 7933" width="1.137" height="58.229" transform="translate(232.334 12.572) rotate(-89.173)" fill="#3f3d56"/>
      <path id="Path_21116" data-name="Path 21116" d="M626.355,208.508a2.847,2.847,0,1,1,1.243-.289A2.847,2.847,0,0,1,626.355,208.508Zm0-4.55a1.707,1.707,0,1,0,1.534.959h0a1.71,1.71,0,0,0-1.534-.959Z" transform="translate(-396.448 -193.418)" fill="#3f3d56"/>
      <path id="Path_21117" data-name="Path 21117" d="M321.686,236.149a7.4,7.4,0,0,1,7.39-7.39h30.129a7.39,7.39,0,1,1,0,14.78H329.076a7.4,7.4,0,0,1-7.39-7.39Z" transform="translate(-266.207 -204.614)" fill="#0f141a"/>
      <rect id="Rectangle_7934" data-name="Rectangle 7934" width="58.229" height="1.137" transform="translate(107.593 29.334) rotate(-0.827)" fill="#3f3d56"/>
      <path id="Path_21118" data-name="Path 21118" d="M516.691,238.255a2.824,2.824,0,1,1,1.243.289A2.824,2.824,0,0,1,516.691,238.255Zm.69-4.168a1.694,1.694,0,0,0-.977.865h0a1.709,1.709,0,1,0,.977-.865Z" transform="translate(-349.675 -206.4)" fill="#3f3d56"/>
      <path id="Path_21119" data-name="Path 21119" d="M317.686,629.149a7.4,7.4,0,0,1,7.39-7.39h30.129a7.39,7.39,0,1,1,0,14.78H325.076A7.4,7.4,0,0,1,317.686,629.149Z" transform="translate(-264.481 -374.203)" fill="#0f141a"/>
      <rect id="Rectangle_7935" data-name="Rectangle 7935" width="58.229" height="1.137" transform="translate(105.318 252.746) rotate(-0.827)" fill="#3f3d56"/>
      <path id="Path_21120" data-name="Path 21120" d="M512.691,631.255a2.824,2.824,0,1,1,1.243.289A2.824,2.824,0,0,1,512.691,631.255Zm.69-4.167a1.694,1.694,0,0,0-.977.865h0a1.709,1.709,0,1,0,.977-.865Z" transform="translate(-347.949 -375.989)" fill="#3f3d56"/>
      <path id="Path_21121" data-name="Path 21121" d="M331.686,381.149a7.4,7.4,0,0,1,7.39-7.39h30.129a7.39,7.39,0,0,1,0,14.78H339.076a7.4,7.4,0,0,1-7.39-7.39Z" transform="translate(-270.523 -267.185)" fill="#0f141a"/>
      <rect id="Rectangle_7936" data-name="Rectangle 7936" width="58.229" height="1.137" transform="translate(113.277 111.763) rotate(-0.827)" fill="#3f3d56"/>
      <path id="Path_21122" data-name="Path 21122" d="M526.691,383.255a2.824,2.824,0,1,1,1.243.289A2.824,2.824,0,0,1,526.691,383.255Zm.69-4.168a1.694,1.694,0,0,0-.977.865h0a1.709,1.709,0,1,0,.977-.865Z" transform="translate(-353.99 -268.971)" fill="#3f3d56"/>
      <path id="Path_21123" data-name="Path 21123" d="M771.432,296.539H741.3a7.39,7.39,0,1,1,0-14.78h30.129a7.39,7.39,0,1,1,0,14.78Z" transform="translate(-444.093 -227.485)" fill="#0f141a"/>
      <rect id="Rectangle_7937" data-name="Rectangle 7937" width="1.137" height="58.229" transform="translate(224.375 59.756) rotate(-89.173)" fill="#3f3d56"/>
      <path id="Path_21124" data-name="Path 21124" d="M612.355,291.508a2.847,2.847,0,1,1,1.243-.289A2.847,2.847,0,0,1,612.355,291.508Zm0-4.55a1.707,1.707,0,1,0,1.534.959h0a1.71,1.71,0,0,0-1.534-.959Z" transform="translate(-390.407 -229.234)" fill="#3f3d56"/>
      <path id="Path_21125" data-name="Path 21125" d="M816.823,455.835l-8.751.388c-1.972,5.363-.575,18.382-.575,18.382L802.9,496a3.867,3.867,0,1,0,6.463,1.736l9.337-25.654Z" transform="translate(-473.372 -302.603)" fill="#9e616a"/>
      <path id="Path_21126" data-name="Path 21126" d="M811.231,414.67h0a9.242,9.242,0,0,1,9.439,10.642l-.841,5.466s2.4,18.609-.527,23.673l-5.591,15.14-9.122-.466,2.522-16.533s.636-8.183-1.692-11.645c-1.426-2.12-2.875-10.1-3.123-16.764a9.218,9.218,0,0,1,8.934-9.513Z" transform="translate(-473.6 -284.838)" fill="#0f141a"/>
      <path id="Path_21127" data-name="Path 21127" d="M576.433,497.955h-5.682l-2.7-21.918h8.387Z" transform="translate(-245.126 -205.421)" fill="#ccd6de"/>
      <path id="Path_21128" data-name="Path 21128" d="M793.98,704.138H776.506v-.221a6.8,6.8,0,0,1,6.8-6.8h0l3.192-2.422,5.955,2.422h1.525Z" transform="translate(-462.473 -405.676)" fill="#0f141a"/>
      <path id="Path_21129" data-name="Path 21129" d="M540.316,497.955h-5.682l-2.7-21.918h8.387Z" transform="translate(-229.541 -205.421)" fill="#ccd6de"/>
      <path id="Path_21130" data-name="Path 21130" d="M757.863,704.138H740.389v-.221a6.8,6.8,0,0,1,6.8-6.8h0l3.192-2.422,5.955,2.422h1.525Z" transform="translate(-446.888 -405.676)" fill="#0f141a"/>
      <path id="Path_21131" data-name="Path 21131" d="M734.479,552.3c3.375,10.751,4.67,19.185,7.242,29.83,1.016,1.869,5.388,17.4,5.388,17.4s6.552.719,8.87-1.115-.071-10.91-.071-10.91c1.528-6.862-2.238-17.673-2.461-24.325.464-2.792-1.994-5.188-2.219-7.851,1.624-1.236,9.527-20.634,11.138-26.054-.828,16.516,6.437,54.227,2.609,66.754-2.224,7.279,2.946,5.661,10.6,6.013,3.413-1.014,2.025-6.857,2.025-6.857s2.318-3.859,2.318-5.356c1.659-7,3.654-22.235,3.109-25.658.249-3.633.373-39.933,3.148-52.648,1.849-10.128-20.817-12.358-27.335-14.773-10.877-5.24-9.042,2.21-14.77,9.073C738.549,517.654,735.3,538.78,734.479,552.3Z" transform="translate(-444.338 -319.497)" fill="#fff" stroke="#0f141a" stroke-width="1"/>
      <path id="Path_21132" data-name="Path 21132" d="M769.669,402.864l6.608-7.44,10.441,1.16,6.685,9.355h0c7.388,1.7,8.751,7.741,7.453,15.211-2.594,14.938-9,25.379-6.087,32.749,4.419,11.188,2.276,19.8-8.3,18.229s-34.952-11.927-28.081-18.8.728-10.472.728-10.472l4.823-26.266c-1.235-6.7-1.045-13.027,5.731-13.729Z" transform="translate(-454.136 -276.534)" fill="#0f141a"/>
      <path id="Path_21133" data-name="Path 21133" d="M758.286,447.929l-8.328-2.717c-3.733,4.326-7.007,17-7.007,17l-11.832,18.407a3.867,3.867,0,1,0,5.439,3.9L754.325,463.8Z" transform="translate(-441.904 -298.019)" fill="#ccd6de"/>
      <path id="Path_21134" data-name="Path 21134" d="M766.272,407.483h0a9.242,9.242,0,0,1,5.09,13.283l-2.711,4.821s-4.3,18.264-8.825,21.973l-10.561,12.2-8.374-3.647,8.179-14.588s3.475-7.436,2.515-11.5c-.588-2.486.863-10.464,2.977-16.79a9.218,9.218,0,0,1,11.71-5.76Z" transform="translate(-447.105 -281.524)" fill="#0f141a"/>
      <circle id="ab6171fa-7d69-4734-b81c-8dff60f9761b" cx="10.793" cy="10.793" r="10.793" transform="translate(319.103 95.716)" fill="#ccd6de"/>
      <path id="Path_21135" data-name="Path 21135" d="M787.48,351.561a6.073,6.073,0,0,1,1.057-2.484,2.97,2.97,0,0,1,4.425-.134,3.257,3.257,0,0,1-.143-1.528,8.276,8.276,0,0,0,2.5.743l-1.915-2c3.935-1.748,7.186-1.654,9.534.876.672.724,2.048.218,2.771.966s.763,2.343-.151,2.76c1.8-.678,3.866.306,5.053,1.954a10.877,10.877,0,0,1,1.7,5.931c.1,2.735-.406,5.646-2.075,7.66-1.092,1.317-2.58,2.138-3.788,3.322l-.036.036a10.739,10.739,0,0,1-10.4,2.9c-.206-.057-.411-.12-.616-.178a2.5,2.5,0,0,1-2.956-1.2,7.566,7.566,0,0,1-.857-3.854,31.592,31.592,0,0,1,.323-5.251c.286-1.957.544-4.464-1.007-5.447-1.207-.765-2.706-.01-3.921.739A20.178,20.178,0,0,1,787.48,351.561Z" transform="translate(-466.98 -254.763)" fill="#0f141a"/>
    </g>
    <g id="Group_13106" data-name="Group 13106">
      <g id="star-filled" transform="translate(43.107 120.922) rotate(-21)" fill="none">
        <path d="M9.541,2.25l-2.5,5.074-5.6.809,4.05,3.951-.957,5.574,5.008-2.631,5.008,2.631-.958-5.575,4.05-3.946-5.6-.814Z" stroke="none"/>
        <path d="M 9.540555953979492 4.50969409942627 L 7.700406074523926 8.238523483276367 L 3.589184761047363 8.832867622375488 L 6.56480598449707 11.73589324951172 L 5.861486434936523 15.83113861083984 L 9.540535926818848 13.89835357666016 L 13.219970703125 15.83115577697754 L 12.51618576049805 11.73497295379639 L 15.4917631149292 8.836300849914551 L 11.38044548034668 8.237983703613281 L 9.540555953979492 4.50969409942627 M 9.540555953979492 2.250003814697266 L 12.04458618164062 7.324103355407715 L 17.64111518859863 8.138553619384766 L 13.59083557128906 12.084153175354 L 14.54861640930176 17.65866279602051 L 9.540555953979492 15.0279426574707 L 4.532985687255859 17.65866279602051 L 5.490276336669922 12.08464336395264 L 1.439996719360352 8.133172988891602 L 7.036525726318359 7.324103355407715 L 9.540555953979492 2.250003814697266 Z" stroke="none" fill="#0f141a"/>
      </g>
      <g id="star-filled-2" data-name="star-filled" transform="translate(42.214 314.208) rotate(34)" fill="none">
        <path d="M9.541,2.25l-2.5,5.074-5.6.809,4.05,3.951-.957,5.574,5.008-2.631,5.008,2.631-.958-5.575,4.05-3.946-5.6-.814Z" stroke="none"/>
        <path d="M 9.540555953979492 4.50969409942627 L 7.700406074523926 8.238523483276367 L 3.589184761047363 8.832867622375488 L 6.56480598449707 11.73589324951172 L 5.861486434936523 15.83113861083984 L 9.540535926818848 13.89835357666016 L 13.219970703125 15.83115577697754 L 12.51618576049805 11.73497295379639 L 15.4917631149292 8.836300849914551 L 11.38044548034668 8.237983703613281 L 9.540555953979492 4.50969409942627 M 9.540555953979492 2.250003814697266 L 12.04458618164062 7.324103355407715 L 17.64111518859863 8.138553619384766 L 13.59083557128906 12.084153175354 L 14.54861640930176 17.65866279602051 L 9.540555953979492 15.0279426574707 L 4.532985687255859 17.65866279602051 L 5.490276336669922 12.08464336395264 L 1.439996719360352 8.133172988891602 L 7.036525726318359 7.324103355407715 L 9.540555953979492 2.250003814697266 Z" stroke="none" fill="#0f141a"/>
      </g>
      <g id="star-filled-3" data-name="star-filled" transform="translate(366.214 134.221) rotate(34)" fill="none">
        <path d="M9.541,2.25l-2.5,5.074-5.6.809,4.05,3.951-.957,5.574,5.008-2.631,5.008,2.631-.958-5.575,4.05-3.946-5.6-.814Z" stroke="none"/>
        <path d="M 9.540555953979492 4.50969409942627 L 7.700406074523926 8.238523483276367 L 3.589184761047363 8.832867622375488 L 6.56480598449707 11.73589324951172 L 5.861486434936523 15.83113861083984 L 9.540535926818848 13.89835357666016 L 13.219970703125 15.83115577697754 L 12.51618576049805 11.73497295379639 L 15.4917631149292 8.836300849914551 L 11.38044548034668 8.237983703613281 L 9.540555953979492 4.50969409942627 M 9.540555953979492 2.250003814697266 L 12.04458618164062 7.324103355407715 L 17.64111518859863 8.138553619384766 L 13.59083557128906 12.084153175354 L 14.54861640930176 17.65866279602051 L 9.540555953979492 15.0279426574707 L 4.532985687255859 17.65866279602051 L 5.490276336669922 12.08464336395264 L 1.439996719360352 8.133172988891602 L 7.036525726318359 7.324103355407715 L 9.540555953979492 2.250003814697266 Z" stroke="none" fill="#0f141a"/>
      </g>
      <g id="star-filled-4" data-name="star-filled" transform="translate(248.214 428.208) rotate(34)" fill="none">
        <path d="M9.541,2.25l-2.5,5.074-5.6.809,4.05,3.951-.957,5.574,5.008-2.631,5.008,2.631-.958-5.575,4.05-3.946-5.6-.814Z" stroke="none"/>
        <path d="M 9.540555953979492 4.50969409942627 L 7.700406074523926 8.238523483276367 L 3.589184761047363 8.832867622375488 L 6.56480598449707 11.73589324951172 L 5.861486434936523 15.83113861083984 L 9.540535926818848 13.89835357666016 L 13.219970703125 15.83115577697754 L 12.51618576049805 11.73497295379639 L 15.4917631149292 8.836300849914551 L 11.38044548034668 8.237983703613281 L 9.540555953979492 4.50969409942627 M 9.540555953979492 2.250003814697266 L 12.04458618164062 7.324103355407715 L 17.64111518859863 8.138553619384766 L 13.59083557128906 12.084153175354 L 14.54861640930176 17.65866279602051 L 9.540555953979492 15.0279426574707 L 4.532985687255859 17.65866279602051 L 5.490276336669922 12.08464336395264 L 1.439996719360352 8.133172988891602 L 7.036525726318359 7.324103355407715 L 9.540555953979492 2.250003814697266 Z" stroke="none" fill="#0f141a"/>
      </g>
      <g id="star-filled-5" data-name="star-filled" transform="translate(380.996 330.456) rotate(-9)" fill="none">
        <path d="M9.541,2.25l-2.5,5.074-5.6.809,4.05,3.951-.957,5.574,5.008-2.631,5.008,2.631-.958-5.575,4.05-3.946-5.6-.814Z" stroke="none"/>
        <path d="M 9.540555953979492 4.50969409942627 L 7.700406074523926 8.238523483276367 L 3.589184761047363 8.832867622375488 L 6.56480598449707 11.73589324951172 L 5.861486434936523 15.83113861083984 L 9.540535926818848 13.89835357666016 L 13.219970703125 15.83115577697754 L 12.51618576049805 11.73497295379639 L 15.4917631149292 8.836300849914551 L 11.38044548034668 8.237983703613281 L 9.540555953979492 4.50969409942627 M 9.540555953979492 2.250003814697266 L 12.04458618164062 7.324103355407715 L 17.64111518859863 8.138553619384766 L 13.59083557128906 12.084153175354 L 14.54861640930176 17.65866279602051 L 9.540555953979492 15.0279426574707 L 4.532985687255859 17.65866279602051 L 5.490276336669922 12.08464336395264 L 1.439996719360352 8.133172988891602 L 7.036525726318359 7.324103355407715 L 9.540555953979492 2.250003814697266 Z" stroke="none" fill="#0f141a"/>
      </g>
      <g id="Ellipse_572" data-name="Ellipse 572" transform="translate(153 127)" fill="none" stroke="#0f141a" stroke-width="1">
        <circle cx="5" cy="5" r="5" stroke="none"/>
        <circle cx="5" cy="5" r="4.5" fill="none"/>
      </g>
      <g id="Ellipse_573" data-name="Ellipse 573" transform="translate(55 388)" fill="none" stroke="#0f141a" stroke-width="1">
        <circle cx="5" cy="5" r="5" stroke="none"/>
        <circle cx="5" cy="5" r="4.5" fill="none"/>
      </g>
      <g id="Ellipse_574" data-name="Ellipse 574" transform="translate(370 426)" fill="none" stroke="#0f141a" stroke-width="1">
        <circle cx="5" cy="5" r="5" stroke="none"/>
        <circle cx="5" cy="5" r="4.5" fill="none"/>
      </g>
      <g id="Ellipse_575" data-name="Ellipse 575" transform="translate(376 248)" fill="none" stroke="#0f141a" stroke-width="1">
        <circle cx="5" cy="5" r="5" stroke="none"/>
        <circle cx="5" cy="5" r="4.5" fill="none"/>
      </g>
    </g>
  </g>
</svg>
