<svg xmlns="http://www.w3.org/2000/svg" width="367.648" height="346.3" viewBox="0 0 367.648 346.3">
  <g id="Group_13116" data-name="Group 13116" transform="translate(-33.534 -116.7)">
    <g id="Group_13106" data-name="Group 13106">
      <g id="star-filled" transform="translate(43.107 120.922) rotate(-21)" fill="none">
        <path d="M9.541,2.25l-2.5,5.074-5.6.809,4.05,3.951-.957,5.574,5.008-2.631,5.008,2.631-.958-5.575,4.05-3.946-5.6-.814Z" stroke="none"/>
        <path d="M 9.540555953979492 4.50969409942627 L 7.700406074523926 8.238523483276367 L 3.589184761047363 8.832867622375488 L 6.56480598449707 11.73589324951172 L 5.861486434936523 15.83113861083984 L 9.540535926818848 13.89835357666016 L 13.219970703125 15.83115577697754 L 12.51618576049805 11.73497295379639 L 15.4917631149292 8.836300849914551 L 11.38044548034668 8.237983703613281 L 9.540555953979492 4.50969409942627 M 9.540555953979492 2.250003814697266 L 12.04458618164062 7.324103355407715 L 17.64111518859863 8.138553619384766 L 13.59083557128906 12.084153175354 L 14.54861640930176 17.65866279602051 L 9.540555953979492 15.0279426574707 L 4.532985687255859 17.65866279602051 L 5.490276336669922 12.08464336395264 L 1.439996719360352 8.133172988891602 L 7.036525726318359 7.324103355407715 L 9.540555953979492 2.250003814697266 Z" stroke="none" fill="#0f141a"/>
      </g>
      <g id="star-filled-2" data-name="star-filled" transform="translate(42.214 314.208) rotate(34)" fill="none">
        <path d="M9.541,2.25l-2.5,5.074-5.6.809,4.05,3.951-.957,5.574,5.008-2.631,5.008,2.631-.958-5.575,4.05-3.946-5.6-.814Z" stroke="none"/>
        <path d="M 9.540555953979492 4.50969409942627 L 7.700406074523926 8.238523483276367 L 3.589184761047363 8.832867622375488 L 6.56480598449707 11.73589324951172 L 5.861486434936523 15.83113861083984 L 9.540535926818848 13.89835357666016 L 13.219970703125 15.83115577697754 L 12.51618576049805 11.73497295379639 L 15.4917631149292 8.836300849914551 L 11.38044548034668 8.237983703613281 L 9.540555953979492 4.50969409942627 M 9.540555953979492 2.250003814697266 L 12.04458618164062 7.324103355407715 L 17.64111518859863 8.138553619384766 L 13.59083557128906 12.084153175354 L 14.54861640930176 17.65866279602051 L 9.540555953979492 15.0279426574707 L 4.532985687255859 17.65866279602051 L 5.490276336669922 12.08464336395264 L 1.439996719360352 8.133172988891602 L 7.036525726318359 7.324103355407715 L 9.540555953979492 2.250003814697266 Z" stroke="none" fill="#0f141a"/>
      </g>
      <g id="star-filled-3" data-name="star-filled" transform="translate(366.214 134.221) rotate(34)" fill="none">
        <path d="M9.541,2.25l-2.5,5.074-5.6.809,4.05,3.951-.957,5.574,5.008-2.631,5.008,2.631-.958-5.575,4.05-3.946-5.6-.814Z" stroke="none"/>
        <path d="M 9.540555953979492 4.50969409942627 L 7.700406074523926 8.238523483276367 L 3.589184761047363 8.832867622375488 L 6.56480598449707 11.73589324951172 L 5.861486434936523 15.83113861083984 L 9.540535926818848 13.89835357666016 L 13.219970703125 15.83115577697754 L 12.51618576049805 11.73497295379639 L 15.4917631149292 8.836300849914551 L 11.38044548034668 8.237983703613281 L 9.540555953979492 4.50969409942627 M 9.540555953979492 2.250003814697266 L 12.04458618164062 7.324103355407715 L 17.64111518859863 8.138553619384766 L 13.59083557128906 12.084153175354 L 14.54861640930176 17.65866279602051 L 9.540555953979492 15.0279426574707 L 4.532985687255859 17.65866279602051 L 5.490276336669922 12.08464336395264 L 1.439996719360352 8.133172988891602 L 7.036525726318359 7.324103355407715 L 9.540555953979492 2.250003814697266 Z" stroke="none" fill="#0f141a"/>
      </g>
      <g id="star-filled-4" data-name="star-filled" transform="translate(248.214 428.208) rotate(34)" fill="none">
        <path d="M9.541,2.25l-2.5,5.074-5.6.809,4.05,3.951-.957,5.574,5.008-2.631,5.008,2.631-.958-5.575,4.05-3.946-5.6-.814Z" stroke="none"/>
        <path d="M 9.540555953979492 4.50969409942627 L 7.700406074523926 8.238523483276367 L 3.589184761047363 8.832867622375488 L 6.56480598449707 11.73589324951172 L 5.861486434936523 15.83113861083984 L 9.540535926818848 13.89835357666016 L 13.219970703125 15.83115577697754 L 12.51618576049805 11.73497295379639 L 15.4917631149292 8.836300849914551 L 11.38044548034668 8.237983703613281 L 9.540555953979492 4.50969409942627 M 9.540555953979492 2.250003814697266 L 12.04458618164062 7.324103355407715 L 17.64111518859863 8.138553619384766 L 13.59083557128906 12.084153175354 L 14.54861640930176 17.65866279602051 L 9.540555953979492 15.0279426574707 L 4.532985687255859 17.65866279602051 L 5.490276336669922 12.08464336395264 L 1.439996719360352 8.133172988891602 L 7.036525726318359 7.324103355407715 L 9.540555953979492 2.250003814697266 Z" stroke="none" fill="#0f141a"/>
      </g>
      <g id="star-filled-5" data-name="star-filled" transform="translate(380.996 330.456) rotate(-9)" fill="none">
        <path d="M9.541,2.25l-2.5,5.074-5.6.809,4.05,3.951-.957,5.574,5.008-2.631,5.008,2.631-.958-5.575,4.05-3.946-5.6-.814Z" stroke="none"/>
        <path d="M 9.540555953979492 4.50969409942627 L 7.700406074523926 8.238523483276367 L 3.589184761047363 8.832867622375488 L 6.56480598449707 11.73589324951172 L 5.861486434936523 15.83113861083984 L 9.540535926818848 13.89835357666016 L 13.219970703125 15.83115577697754 L 12.51618576049805 11.73497295379639 L 15.4917631149292 8.836300849914551 L 11.38044548034668 8.237983703613281 L 9.540555953979492 4.50969409942627 M 9.540555953979492 2.250003814697266 L 12.04458618164062 7.324103355407715 L 17.64111518859863 8.138553619384766 L 13.59083557128906 12.084153175354 L 14.54861640930176 17.65866279602051 L 9.540555953979492 15.0279426574707 L 4.532985687255859 17.65866279602051 L 5.490276336669922 12.08464336395264 L 1.439996719360352 8.133172988891602 L 7.036525726318359 7.324103355407715 L 9.540555953979492 2.250003814697266 Z" stroke="none" fill="#0f141a"/>
      </g>
      <g id="Ellipse_572" data-name="Ellipse 572" transform="translate(153 127)" fill="none" stroke="#0f141a" stroke-width="1">
        <circle cx="5" cy="5" r="5" stroke="none"/>
        <circle cx="5" cy="5" r="4.5" fill="none"/>
      </g>
      <g id="Ellipse_573" data-name="Ellipse 573" transform="translate(55 388)" fill="none" stroke="#0f141a" stroke-width="1">
        <circle cx="5" cy="5" r="5" stroke="none"/>
        <circle cx="5" cy="5" r="4.5" fill="none"/>
      </g>
      <g id="Ellipse_574" data-name="Ellipse 574" transform="translate(370 426)" fill="none" stroke="#0f141a" stroke-width="1">
        <circle cx="5" cy="5" r="5" stroke="none"/>
        <circle cx="5" cy="5" r="4.5" fill="none"/>
      </g>
      <g id="Ellipse_575" data-name="Ellipse 575" transform="translate(376 248)" fill="none" stroke="#0f141a" stroke-width="1">
        <circle cx="5" cy="5" r="5" stroke="none"/>
        <circle cx="5" cy="5" r="4.5" fill="none"/>
      </g>
    </g>
    <rect id="Rectangle_7976" data-name="Rectangle 7976" width="220" height="220" rx="110" transform="translate(104 243)" fill="#eff3f4" opacity="0.48"/>
    <g id="undraw_order_delivered_re_v4ab" transform="translate(62 166.064)">
      <path id="Path_21178" data-name="Path 21178" d="M458.722,398.009a51.909,51.909,0,0,0-3.427,31.753,22.353,22.353,0,0,0,2.367,6.592,12.821,12.821,0,0,0,4.843,4.7,26.535,26.535,0,0,1,5.42,3.446,7.85,7.85,0,0,1,2.311,5.99,20.4,20.4,0,0,1-2.26,7.8c-1.248,2.746-2.589,5.578-2.508,8.665.01.374-.571.367-.581-.006-.141-5.371,3.742-9.684,4.607-14.837a7.95,7.95,0,0,0-1.605-6.809c-1.478-1.63-3.555-2.538-5.436-3.6a13.681,13.681,0,0,1-4.907-4.417,20.666,20.666,0,0,1-2.612-6.476,50.359,50.359,0,0,1-1.142-15.7,52.829,52.829,0,0,1,4.43-17.388C458.376,397.37,458.873,397.671,458.722,398.009Z" transform="translate(-373.719 -303.804)" fill="#fff"/>
      <path id="Path_21179" data-name="Path 21179" d="M446.714,449.725a7.788,7.788,0,0,1-8.125-5.974c-.085-.364.477-.513.562-.149a7.211,7.211,0,0,0,7.569,5.541C447.092,449.117,447.084,449.7,446.714,449.725Z" transform="translate(-366.056 -327.165)" fill="#fff"/>
      <path id="Path_21180" data-name="Path 21180" d="M469.611,474.444a15.01,15.01,0,0,0,3.762-10.272c-.008-.374.572-.368.581.006a15.613,15.613,0,0,1-3.937,10.681C469.768,475.138,469.363,474.722,469.611,474.444Z" transform="translate(-381.833 -337.614)" fill="#fff"/>
      <path id="Path_21181" data-name="Path 21181" d="M456.03,420.19a4.408,4.408,0,0,0,3.916-1.47c.245-.283.65.134.406.415a4.94,4.94,0,0,1-4.329,1.636.3.3,0,0,1-.287-.293.292.292,0,0,1,.293-.287Z" transform="translate(-374.8 -314.541)" fill="#fff"/>
      <path id="Path_21182" data-name="Path 21182" d="M513.62,419.929c-.148.181-.3.362-.443.548a58.052,58.052,0,0,0-5.313,7.775c-.124.209-.246.423-.364.636a61.2,61.2,0,0,0-7.141,21.372,59.441,59.441,0,0,0-.545,9.014c.065,4.163.468,8.671-.808,12.5a10.191,10.191,0,0,1-.459,1.175l-20.476,6.524c-.054-.009-.107-.012-.161-.021l-.806.3c-.013-.155-.024-.317-.037-.472-.008-.09-.012-.182-.02-.272,0-.061-.008-.121-.015-.175,0-.02,0-.04,0-.056-.007-.054-.008-.106-.013-.155-.061-.9-.117-1.8-.164-2.711,0,0,0,0,0-.011A87.39,87.39,0,0,1,478,455.268c.038-.2.075-.41.123-.616a56.709,56.709,0,0,1,2.508-8.909,50.124,50.124,0,0,1,2.022-4.653,41.692,41.692,0,0,1,7.569-10.614c6.108-6.217,14.137-10.412,22.741-10.544C513.183,419.93,513.4,419.928,513.62,419.929Z" transform="translate(-385.488 -315.205)" fill="#f7f9fa"/>
      <path id="Path_21183" data-name="Path 21183" d="M513.987,419.892a51.908,51.908,0,0,0-21.853,23.29,22.353,22.353,0,0,0-2.079,6.688,12.821,12.821,0,0,0,1.039,6.667,26.53,26.53,0,0,1,2.253,6.015,7.85,7.85,0,0,1-1.761,6.174,20.4,20.4,0,0,1-6.5,4.864c-2.65,1.441-5.425,2.895-7.219,5.408-.217.3-.677-.051-.46-.355,3.121-4.373,8.818-5.479,12.612-9.073a7.95,7.95,0,0,0,2.818-6.4c-.2-2.191-1.311-4.167-2.171-6.15a13.681,13.681,0,0,1-1.259-6.481,20.665,20.665,0,0,1,1.814-6.743,50.36,50.36,0,0,1,8.54-13.222,52.83,52.83,0,0,1,14.006-11.217c.327-.18.543.359.218.538Z" transform="translate(-385.818 -314.893)" fill="#fff"/>
      <path id="Path_21184" data-name="Path 21184" d="M506.488,451.108a7.788,7.788,0,0,1-2.891-9.661c.151-.342.69-.123.538.22a7.211,7.211,0,0,0,2.707,8.981c.314.2-.042.661-.355.46Z" transform="translate(-398.86 -326.085)" fill="#fff"/>
      <path id="Path_21185" data-name="Path 21185" d="M504,487.017a15.01,15.01,0,0,0,9.188-5.936c.219-.3.678.051.46.355a15.613,15.613,0,0,1-9.574,6.158c-.367.074-.44-.5-.075-.576Z" transform="translate(-399.278 -346.315)" fill="#fff"/>
      <path id="Path_21186" data-name="Path 21186" d="M531.391,434.431a4.408,4.408,0,0,0,4.012,1.184c.366-.078.438.5.075.576a4.94,4.94,0,0,1-4.441-1.3.3.3,0,0,1-.053-.407A.292.292,0,0,1,531.391,434.431Z" transform="translate(-413.125 -322.566)" fill="#fff"/>
      <path id="Path_21187" data-name="Path 21187" d="M605.559,270.715a5.879,5.879,0,0,1,.134.917l24.007,13.85,5.835-3.359,6.221,8.144L632,297.217a4.471,4.471,0,0,1-5.364-.131l-24.756-19.53a5.866,5.866,0,1,1,3.675-6.841Z" transform="translate(-445.263 -236.843)" fill="#ffb6b6"/>
      <path id="Path_21188" data-name="Path 21188" d="M667.452,292.921a2.512,2.512,0,0,1,1.254-1.677L679.79,285.2a6.984,6.984,0,0,1,8.444,11.127l-8.883,9.024a2.515,2.515,0,0,1-3.8-.25l-7.648-10.14A2.512,2.512,0,0,1,667.452,292.921Z" transform="translate(-482.682 -245.812)" fill="#3f3d56"/>
      <path id="Path_21189" data-name="Path 21189" d="M707.2,218.338c1.595-5.082,5.221-9.744,10.237-11.462s12.36.9,16.13,4.657c6.9,6.874,8.58,30.488,3.842,37.95-.943-.05-4.195-.087-5.149-.123l-1.349-4.5v4.453c-7.446-.23-15.2-.086-22.954.063C707.261,244.1,705.6,223.42,707.2,218.338Z" transform="translate(-502.628 -206.338)" fill="#0f141a"/>
      <path id="Path_21190" data-name="Path 21190" d="M402.465,432.341h-6.791l-3.231-26.2h10.023Z" transform="translate(-200.027 -207.012)" fill="#ccd6de"/>
      <path id="Path_21191" data-name="Path 21191" d="M517.186,424.609l-6.571,1.713-9.734-24.533,9.7-2.527Z" transform="translate(-255.298 -203.503)" fill="#ccd6de"/>
      <path id="Path_21192" data-name="Path 21192" d="M427.777,128.233l1.539,4-.308,4-30.116,10.431,1.494-17.51,3.385-4Z" transform="translate(-203.315 -63.791)" fill="#ffb6b6"/>
      <circle id="Ellipse_512" data-name="Ellipse 512" cx="10.756" cy="10.756" r="10.756" transform="translate(204.184 6.924)" fill="#ccd6de"/>
      <path id="Path_21193" data-name="Path 21193" d="M707.245,211.778a13.51,13.51,0,0,1,20.541,11.791c-5.863,1.5-12.112,2.125-18.733.361l-1.514-3.7-.892,3.707a4.551,4.551,0,0,1-5.866-.008A13.8,13.8,0,0,1,707.245,211.778Z" transform="translate(-499.695 -208.104)" fill="#0f141a"/>
      <path id="Path_21194" data-name="Path 21194" d="M685.274,674.657h-4.819l-.86-4.55-2.2,4.55H664.61a2.873,2.873,0,0,1-1.633-5.237l10.207-7.049v-4.6l10.736.641Z" transform="translate(-479.798 -436.432)" fill="#0f141a"/>
      <path id="Path_21195" data-name="Path 21195" d="M814.117,664.881l-4.663,1.216-1.98-4.186-.984,4.958-12.368,3.224a2.873,2.873,0,0,1-2.9-4.656l8.1-9.4-1.16-4.451,10.55-2.088Z" transform="translate(-545.441 -432.218)" fill="#0f141a"/>
      <path id="Path_21196" data-name="Path 21196" d="M748.763,497.046l-19.907-40.914-6.249-49.8c4.309-8-3.693-24.284-3.693-24.284v-6.836l-31,5.848h0a148.794,148.794,0,0,0-9.067,54.025l1.249,66.2h-.392a2.452,2.452,0,1,0,0,4.9h12.258a2.452,2.452,0,0,0,0-4.9h-.316l8.8-84.213,10.232,41.557,24.726,38.263a2.445,2.445,0,0,0,.2,4.883h12.258a2.449,2.449,0,0,0,.9-4.726Z" transform="translate(-487.708 -292.413)" fill="#fff" stroke="#0f141a" stroke-width="1"/>
      <path id="Path_21197" data-name="Path 21197" d="M724.876,335.308h0a1.955,1.955,0,0,0-1.768-1.468c-.409-4.671-3.108-34.629-3.211-35.508l0-.037-.782-16.7a2.469,2.469,0,0,0-2.306-2.349l-4.129-.27a.218.218,0,0,1-.211-.218,3.472,3.472,0,0,0-3.472-3.472H696.77a3.251,3.251,0,0,0-3.224,2.846.216.216,0,0,1-.22.194h0a5.807,5.807,0,0,0-5.842,4.817c-1.671,9.723-5.02,31.791-3.364,44.06a85.961,85.961,0,0,1,.1,14.268,2.63,2.63,0,0,0,.655,1.907,1.957,1.957,0,0,0-1.356,2.357h0a1.961,1.961,0,0,0,2.381,1.422l37.559-9.468A1.961,1.961,0,0,0,724.876,335.308Z" transform="translate(-490.868 -241.481)" fill="#0f141a"/>
      <path id="Path_21198" data-name="Path 21198" d="M519.73,524.724a4.64,4.64,0,0,0-3.9-4.551l-66.59-10.935a4.64,4.64,0,0,0-1.919.085l-15.606,4.035-8.954,2.318-16.524,4.272a4.655,4.655,0,0,0-3.485,4.5V594.23a4.675,4.675,0,0,0,3.682,4.547l67.827-.768a4.517,4.517,0,0,0,.969.1,4.642,4.642,0,0,0,1.4-.213l40.3,1a4.633,4.633,0,0,0,3.252-4.473Z" transform="translate(-347.796 -360.694)" fill="#fff"/>
      <path id="Path_21199" data-name="Path 21199" d="M519.73,524.724a4.64,4.64,0,0,0-3.9-4.551l-66.59-10.935a4.64,4.64,0,0,0-1.919.085l-15.606,4.035-8.954,2.318-16.524,4.272a4.655,4.655,0,0,0-3.485,4.5V594.23a4.675,4.675,0,0,0,3.682,4.547l67.827-.768a4.517,4.517,0,0,0,.969.1,4.642,4.642,0,0,0,1.4-.213l40.3,1a4.633,4.633,0,0,0,3.252-4.473Zm-3.148,73.066-40.3.959a3.538,3.538,0,0,1-1.775.085l-67.83-1.193a3.507,3.507,0,0,1-2.76-3.411V524.453a3.493,3.493,0,0,1,2.287-3.275,2.918,2.918,0,0,1,.326-.1l17.482-4.52,10.338-2.675,13.265-3.43a3.326,3.326,0,0,1,.872-.112,3.444,3.444,0,0,1,.566.046l66.59,10.935a3.471,3.471,0,0,1,2.923,3.411l.454,69.7a3.476,3.476,0,0,1-2.438,3.357Z" transform="translate(-347.796 -360.694)" fill="#ccc"/>
      <path id="Path_21200" data-name="Path 21200" d="M519.587,535.354a.506.506,0,0,1-.147.066l-19.587,5.295-6.1,1.647-17.342,4.686a.672.672,0,0,1-.151.019.937.937,0,0,1-.1-.008l-69.927-12.749-.233-.043a.583.583,0,1,1,.209-1.147l1.407.256L476.24,545.89l14.947-4.039,8.361-2.26,19.284-5.214.306-.081a.584.584,0,0,1,.678.318.454.454,0,0,1,.035.093A.583.583,0,0,1,519.587,535.354Z" transform="translate(-349.205 -372.894)" fill="#ccc"/>
      <path id="Path_21201" data-name="Path 21201" d="M549.782,623.745c-.319,0-.578-.257-.581,1.385l-.581-63.377c0-2.282.255-2.545.576-2.548h.005c.319,0,.578.257.581,2.537l.581,63.377c0-1.64-.255-1.378-.576-1.374Z" transform="translate(-422.143 -386.194)" fill="#ccc"/>
      <path id="Path_21202" data-name="Path 21202" d="M519.411,603.329l-6.262.066-2.57-69.4L445,520.952a1.505,1.505,0,0,1-.19-.047,2.312,2.312,0,0,1-1.248-.88l8.954-2.318,2.632.523,62.222,12.377a2.313,2.313,0,0,1,1.566,1.132C519.133,532.077,519.407,602.926,519.411,603.329Z" transform="translate(-368.597 -365.043)" fill="#0f141a"/>
      <path id="Path_21203" data-name="Path 21203" d="M608.913,269.646a3.5,3.5,0,0,0-2.936-3.43l-50.186-8.241a3.5,3.5,0,0,0-1.446.064l-11.761,3.041-6.748,1.747-12.454,3.219a3.508,3.508,0,0,0-2.626,3.395v41.133A3.524,3.524,0,0,0,523.531,314l51.118,10.876a3.4,3.4,0,0,0,.73.076,3.5,3.5,0,0,0,1.055-.161L606.8,315.2a3.491,3.491,0,0,0,2.451-3.371Z" transform="translate(-407.94 -232.633)" fill="#fff"/>
      <path id="Path_21204" data-name="Path 21204" d="M558.412,264.184a.424.424,0,0,0-.109.014l-30.964,8.007a.438.438,0,0,0-.328.424v41.132a.44.44,0,0,0,.346.428l51.118,10.876a.441.441,0,0,0,.223-.011l30.371-9.591a.435.435,0,0,0,.305-.421l-.34-42.184a.437.437,0,0,0-.367-.428l-50.186-8.241a.458.458,0,0,0-.071-.006Z" transform="translate(-411.129 -235.822)" fill="#1f9cef"/>
      <path id="Path_21205" data-name="Path 21205" d="M608.913,269.646a3.5,3.5,0,0,0-2.936-3.43l-50.186-8.241a3.5,3.5,0,0,0-1.446.064l-11.761,3.041-6.748,1.747-12.454,3.219a3.508,3.508,0,0,0-2.626,3.395v41.133A3.524,3.524,0,0,0,523.531,314l51.118,10.876a3.4,3.4,0,0,0,.73.076,3.5,3.5,0,0,0,1.055-.161L606.8,315.2a3.491,3.491,0,0,0,2.451-3.371Zm-2.372,44.72-30.37,9.591a2.666,2.666,0,0,1-1.338.064l-51.121-10.876a2.643,2.643,0,0,1-2.08-2.571V269.441a2.632,2.632,0,0,1,1.724-2.469,2.18,2.18,0,0,1,.245-.076l13.175-3.406,7.791-2.016,10-2.585a2.5,2.5,0,0,1,.657-.085,2.6,2.6,0,0,1,.427.035l50.186,8.241a2.616,2.616,0,0,1,2.2,2.571l.342,42.184a2.62,2.62,0,0,1-1.838,2.53Z" transform="translate(-407.94 -232.633)" fill="#3f3d56"/>
      <path id="Path_21206" data-name="Path 21206" d="M608.807,277.657a.382.382,0,0,1-.111.05L593.934,281.7l-4.6,1.242-13.07,3.532a.5.5,0,0,1-.114.015.71.71,0,0,1-.079-.006l-52.7-9.608-.175-.032a.44.44,0,1,1,.158-.865l1.06.193,51.719,9.43,11.265-3.044,6.3-1.7,14.534-3.929.231-.061a.44.44,0,0,1,.511.24.35.35,0,0,1,.026.07.439.439,0,0,1-.2.488Z" transform="translate(-409.002 -241.828)" fill="#0f141a"/>
      <path id="Path_21207" data-name="Path 21207" d="M631.562,344.273a.438.438,0,0,1-.438-.434l-.438-47.764a.438.438,0,0,1,.434-.442h0a.438.438,0,0,1,.438.434L632,343.831a.438.438,0,0,1-.434.442Z" transform="translate(-463.972 -251.851)" fill="#0f141a"/>
      <path id="Path_21208" data-name="Path 21208" d="M608.549,322.521l-4.6,1.242-1.937-47.127L552.6,266.8a1.144,1.144,0,0,1-.143-.035,1.742,1.742,0,0,1-.941-.663l6.748-1.747,1.984.394,46.893,9.328a1.743,1.743,0,0,1,1.18.853C608.464,275.187,608.546,322.217,608.549,322.521Z" transform="translate(-423.617 -235.91)" fill="#0f141a"/>
      <path id="Path_21209" data-name="Path 21209" d="M653.611,319.1a5.887,5.887,0,0,1,.654.656l27.529-3.215,2.677-6.178,9.852,2.822-3.677,11.4a4.471,4.471,0,0,1-4.382,3.1l-31.519-.9a5.866,5.866,0,1,1-1.134-7.682Z" transform="translate(-470.738 -259.36)" fill="#ccd6de"/>
      <path id="Path_21210" data-name="Path 21210" d="M719.573,300.723a2.512,2.512,0,0,1,.006-2.094l5.289-11.46a6.984,6.984,0,1,1,13.416,3.889L736.542,303.6a2.515,2.515,0,0,1-3.2,2.067L721.155,302.1A2.512,2.512,0,0,1,719.573,300.723Z" transform="translate(-509.162 -244.967)" fill="#0f141a"/>
      <path id="Path_21267" data-name="Path 21267" d="M17.558,0A17.558,17.558,0,1,1,0,17.558,17.558,17.558,0,0,1,17.558,0Z" transform="translate(41.333 141.649)" fill="#1f9cef"/>
      <path id="Path_21212" data-name="Path 21212" d="M398.88,530.688a1.953,1.953,0,0,1-1.562-.781l-4.79-6.387a1.953,1.953,0,0,1,3.125-2.344l3.134,4.178,8.049-12.073a1.953,1.953,0,0,1,3.25,2.167L400.5,529.818a1.954,1.954,0,0,1-1.571.869Z" transform="translate(-342.384 -362.343)" fill="#fff"/>
      <path id="Path_21213" data-name="Path 21213" d="M546.691,335.741a.742.742,0,0,1-.162-.018l-15.2-3.432a.736.736,0,0,1,.324-1.435l15.2,3.432a.736.736,0,0,1-.161,1.453Z" transform="translate(-413.037 -269.795)" fill="#fff"/>
      <path id="Path_21214" data-name="Path 21214" d="M426.834,620.788a.743.743,0,0,1-.163.015l-15.58-.262a.736.736,0,0,1,.024-1.471l15.58.262a.736.736,0,0,1,.138,1.456Z" transform="translate(-351.676 -416.707)" fill="#e6e6e6"/>
      <path id="Path_21215" data-name="Path 21215" d="M437.834,637.788a.735.735,0,0,1-.163.015l-15.58-.262a.736.736,0,1,1,.024-1.471l15.58.262a.736.736,0,0,1,.138,1.456Z" transform="translate(-357.283 -425.371)" fill="#e6e6e6"/>
    </g>
  </g>
</svg>
